<svg width="160" height="46" viewBox="0 0 160 46" fill="none" xmlns="http://www.w3.org/2000/svg">
<mask id="path-1-outside-1_202_210" maskUnits="userSpaceOnUse" x="1" y="11" width="157" height="30" fill="black">
<rect fill="white" x="1" y="11" width="157" height="30"/>
<path d="M2.686 34V12.648H6.63V30.26H15.028V25.16H18.972V34H2.686ZM22.4663 34V17.544H26.0023V34H22.4663ZM22.2623 14.178C22.2623 13.09 23.1463 12.206 24.2343 12.206C25.3223 12.206 26.2063 13.09 26.2063 14.178C26.2063 15.266 25.3223 16.15 24.2343 16.15C23.1463 16.15 22.2623 15.266 22.2623 14.178ZM31.4843 39.678V24.276H29.1723V20.944H31.4843V18.156C31.4843 15.096 33.3543 12.206 37.6043 12.206C38.4543 12.206 39.5763 12.342 40.3243 12.648L38.8623 15.844C38.3863 15.64 37.9443 15.538 37.2983 15.538C35.8703 15.538 35.0203 16.728 35.0203 17.952V20.944H38.5563V24.276H35.0203V39.678H31.4843ZM59.2344 38.25V36.55H76.2344V38.25H59.2344ZM79.2944 34V27.268H76.7444V23.528H79.2944V12.648H89.4604C94.2204 12.648 97.1444 15.776 97.1444 19.958C97.1444 24.14 94.2204 27.268 89.4604 27.268H83.2384V34H79.2944ZM83.2384 16.388V23.528H89.1544C91.9424 23.528 93.2004 21.862 93.2004 19.958C93.2004 18.054 91.9424 16.388 89.1544 16.388H83.2384ZM132.866 34V31.994H132.798C131.676 33.49 129.636 34.442 127.392 34.442C121.986 34.442 118.858 30.022 118.858 25.772C118.858 21.726 122.224 17.102 127.562 17.102C130.01 17.102 131.88 18.156 132.798 19.55H132.866V17.544H136.402V34H132.866ZM122.598 25.772C122.598 28.73 124.978 31.11 127.834 31.11C130.622 31.11 133.002 28.73 133.002 25.772C133.002 22.814 130.622 20.434 127.834 20.434C124.978 20.434 122.598 22.814 122.598 25.772ZM141.444 34V27.132H139.132V23.8H141.444V12.648H144.98V23.8H146.782L151.1 17.544H155.384L149.808 25.296L155.656 34H151.474L147.122 27.132H144.98V34H141.444Z"/>
<path d="M54.0749 28.764L57.0669 30.43C55.0949 32.912 52.3749 34.408 49.4169 34.442C43.6709 34.442 40.3389 30.124 40.3389 25.772C40.3389 21.42 43.6709 17.102 49.4169 17.102C52.8509 17.102 57.9509 19.924 57.9509 26.35V26.996H44.2829C44.4869 29.512 46.8329 31.314 49.3149 31.314C51.2189 31.314 52.8509 30.396 54.0749 28.764ZM44.2829 24.072H53.8029C53.0549 21.556 51.1849 20.23 48.9409 20.23C46.6969 20.23 44.8609 21.624 44.2829 24.072ZM112.678 28.764L115.67 30.43C113.698 32.912 110.978 34.408 108.02 34.442C102.274 34.442 98.9424 30.124 98.9424 25.772C98.9424 21.42 102.274 17.102 108.02 17.102C111.454 17.102 116.554 19.924 116.554 26.35V26.996H102.886C103.09 29.512 105.436 31.314 107.918 31.314C109.822 31.314 111.454 30.396 112.678 28.764ZM102.886 24.072H112.406C111.658 21.556 109.788 20.23 107.544 20.23C105.3 20.23 103.464 21.624 102.886 24.072Z"/>
</mask>
<path d="M2.686 34V12.648H6.63V30.26H15.028V25.16H18.972V34H2.686ZM22.4663 34V17.544H26.0023V34H22.4663ZM22.2623 14.178C22.2623 13.09 23.1463 12.206 24.2343 12.206C25.3223 12.206 26.2063 13.09 26.2063 14.178C26.2063 15.266 25.3223 16.15 24.2343 16.15C23.1463 16.15 22.2623 15.266 22.2623 14.178ZM31.4843 39.678V24.276H29.1723V20.944H31.4843V18.156C31.4843 15.096 33.3543 12.206 37.6043 12.206C38.4543 12.206 39.5763 12.342 40.3243 12.648L38.8623 15.844C38.3863 15.64 37.9443 15.538 37.2983 15.538C35.8703 15.538 35.0203 16.728 35.0203 17.952V20.944H38.5563V24.276H35.0203V39.678H31.4843ZM59.2344 38.25V36.55H76.2344V38.25H59.2344ZM79.2944 34V27.268H76.7444V23.528H79.2944V12.648H89.4604C94.2204 12.648 97.1444 15.776 97.1444 19.958C97.1444 24.14 94.2204 27.268 89.4604 27.268H83.2384V34H79.2944ZM83.2384 16.388V23.528H89.1544C91.9424 23.528 93.2004 21.862 93.2004 19.958C93.2004 18.054 91.9424 16.388 89.1544 16.388H83.2384ZM132.866 34V31.994H132.798C131.676 33.49 129.636 34.442 127.392 34.442C121.986 34.442 118.858 30.022 118.858 25.772C118.858 21.726 122.224 17.102 127.562 17.102C130.01 17.102 131.88 18.156 132.798 19.55H132.866V17.544H136.402V34H132.866ZM122.598 25.772C122.598 28.73 124.978 31.11 127.834 31.11C130.622 31.11 133.002 28.73 133.002 25.772C133.002 22.814 130.622 20.434 127.834 20.434C124.978 20.434 122.598 22.814 122.598 25.772ZM141.444 34V27.132H139.132V23.8H141.444V12.648H144.98V23.8H146.782L151.1 17.544H155.384L149.808 25.296L155.656 34H151.474L147.122 27.132H144.98V34H141.444Z" fill="black"/>
<path d="M54.0749 28.764L57.0669 30.43C55.0949 32.912 52.3749 34.408 49.4169 34.442C43.6709 34.442 40.3389 30.124 40.3389 25.772C40.3389 21.42 43.6709 17.102 49.4169 17.102C52.8509 17.102 57.9509 19.924 57.9509 26.35V26.996H44.2829C44.4869 29.512 46.8329 31.314 49.3149 31.314C51.2189 31.314 52.8509 30.396 54.0749 28.764ZM44.2829 24.072H53.8029C53.0549 21.556 51.1849 20.23 48.9409 20.23C46.6969 20.23 44.8609 21.624 44.2829 24.072ZM112.678 28.764L115.67 30.43C113.698 32.912 110.978 34.408 108.02 34.442C102.274 34.442 98.9424 30.124 98.9424 25.772C98.9424 21.42 102.274 17.102 108.02 17.102C111.454 17.102 116.554 19.924 116.554 26.35V26.996H102.886C103.09 29.512 105.436 31.314 107.918 31.314C109.822 31.314 111.454 30.396 112.678 28.764ZM102.886 24.072H112.406C111.658 21.556 109.788 20.23 107.544 20.23C105.3 20.23 103.464 21.624 102.886 24.072Z" fill="white"/>
<path d="M2.686 34H1.686V35H2.686V34ZM2.686 12.648V11.648H1.686V12.648H2.686ZM6.63 12.648H7.63V11.648H6.63V12.648ZM6.63 30.26H5.63V31.26H6.63V30.26ZM15.028 30.26V31.26H16.028V30.26H15.028ZM15.028 25.16V24.16H14.028V25.16H15.028ZM18.972 25.16H19.972V24.16H18.972V25.16ZM18.972 34V35H19.972V34H18.972ZM3.686 34V12.648H1.686V34H3.686ZM2.686 13.648H6.63V11.648H2.686V13.648ZM5.63 12.648V30.26H7.63V12.648H5.63ZM6.63 31.26H15.028V29.26H6.63V31.26ZM16.028 30.26V25.16H14.028V30.26H16.028ZM15.028 26.16H18.972V24.16H15.028V26.16ZM17.972 25.16V34H19.972V25.16H17.972ZM18.972 33H2.686V35H18.972V33ZM22.4663 34H21.4663V35H22.4663V34ZM22.4663 17.544V16.544H21.4663V17.544H22.4663ZM26.0023 17.544H27.0023V16.544H26.0023V17.544ZM26.0023 34V35H27.0023V34H26.0023ZM23.4663 34V17.544H21.4663V34H23.4663ZM22.4663 18.544H26.0023V16.544H22.4663V18.544ZM25.0023 17.544V34H27.0023V17.544H25.0023ZM26.0023 33H22.4663V35H26.0023V33ZM23.2623 14.178C23.2623 13.6423 23.6986 13.206 24.2343 13.206V11.206C22.594 11.206 21.2623 12.5377 21.2623 14.178H23.2623ZM24.2343 13.206C24.77 13.206 25.2063 13.6423 25.2063 14.178H27.2063C27.2063 12.5377 25.8746 11.206 24.2343 11.206V13.206ZM25.2063 14.178C25.2063 14.7137 24.77 15.15 24.2343 15.15V17.15C25.8746 17.15 27.2063 15.8183 27.2063 14.178H25.2063ZM24.2343 15.15C23.6986 15.15 23.2623 14.7137 23.2623 14.178H21.2623C21.2623 15.8183 22.594 17.15 24.2343 17.15V15.15ZM31.4843 39.678H30.4843V40.678H31.4843V39.678ZM31.4843 24.276H32.4843V23.276H31.4843V24.276ZM29.1723 24.276H28.1723V25.276H29.1723V24.276ZM29.1723 20.944V19.944H28.1723V20.944H29.1723ZM31.4843 20.944V21.944H32.4843V20.944H31.4843ZM40.3243 12.648L41.2336 13.064L41.6669 12.1168L40.7029 11.7225L40.3243 12.648ZM38.8623 15.844L38.4683 16.7631L39.3656 17.1477L39.7716 16.26L38.8623 15.844ZM35.0203 20.944H34.0203V21.944H35.0203V20.944ZM38.5563 20.944H39.5563V19.944H38.5563V20.944ZM38.5563 24.276V25.276H39.5563V24.276H38.5563ZM35.0203 24.276V23.276H34.0203V24.276H35.0203ZM35.0203 39.678V40.678H36.0203V39.678H35.0203ZM32.4843 39.678V24.276H30.4843V39.678H32.4843ZM31.4843 23.276H29.1723V25.276H31.4843V23.276ZM30.1723 24.276V20.944H28.1723V24.276H30.1723ZM29.1723 21.944H31.4843V19.944H29.1723V21.944ZM32.4843 20.944V18.156H30.4843V20.944H32.4843ZM32.4843 18.156C32.4843 16.8207 32.8922 15.5893 33.6924 14.704C34.4761 13.8369 35.7217 13.206 37.6043 13.206V11.206C35.2368 11.206 33.4224 12.0201 32.2086 13.363C31.0113 14.6877 30.4843 16.4313 30.4843 18.156H32.4843ZM37.6043 13.206C38.3923 13.206 39.3678 13.3371 39.9456 13.5735L40.7029 11.7225C39.7848 11.3469 38.5163 11.206 37.6043 11.206V13.206ZM39.4149 12.232L37.9529 15.428L39.7716 16.26L41.2336 13.064L39.4149 12.232ZM39.2562 14.9249C38.6535 14.6666 38.0772 14.538 37.2983 14.538V16.538C37.8113 16.538 38.1191 16.6134 38.4683 16.7631L39.2562 14.9249ZM37.2983 14.538C35.1897 14.538 34.0203 16.3134 34.0203 17.952H36.0203C36.0203 17.1426 36.5508 16.538 37.2983 16.538V14.538ZM34.0203 17.952V20.944H36.0203V17.952H34.0203ZM35.0203 21.944H38.5563V19.944H35.0203V21.944ZM37.5563 20.944V24.276H39.5563V20.944H37.5563ZM38.5563 23.276H35.0203V25.276H38.5563V23.276ZM34.0203 24.276V39.678H36.0203V24.276H34.0203ZM35.0203 38.678H31.4843V40.678H35.0203V38.678ZM54.0749 28.764L54.5614 27.8903L53.7987 27.4656L53.2749 28.164L54.0749 28.764ZM57.0669 30.43L57.8498 31.0521L58.5828 30.1295L57.5534 29.5563L57.0669 30.43ZM49.4169 34.442V35.4421L49.4284 35.4419L49.4169 34.442ZM57.9509 26.996V27.996H58.9509V26.996H57.9509ZM44.2829 26.996V25.996H43.1985L43.2861 27.0768L44.2829 26.996ZM44.2829 24.072L43.3096 23.8422L43.0193 25.072H44.2829V24.072ZM53.8029 24.072V25.072H55.1434L54.7614 23.787L53.8029 24.072ZM53.5884 29.6377L56.5804 31.3037L57.5534 29.5563L54.5614 27.8903L53.5884 29.6377ZM56.2839 29.8079C54.468 32.0935 52.0157 33.4121 49.4054 33.4421L49.4284 35.4419C52.734 35.4039 55.7218 33.7305 57.8498 31.0521L56.2839 29.8079ZM49.4169 33.442C44.2656 33.442 41.3389 29.6151 41.3389 25.772H39.3389C39.3389 30.6329 43.0762 35.442 49.4169 35.442V33.442ZM41.3389 25.772C41.3389 21.9289 44.2656 18.102 49.4169 18.102V16.102C43.0762 16.102 39.3389 20.9111 39.3389 25.772H41.3389ZM49.4169 18.102C52.4166 18.102 56.9509 20.5873 56.9509 26.35H58.9509C58.9509 19.2607 53.2852 16.102 49.4169 16.102V18.102ZM56.9509 26.35V26.996H58.9509V26.35H56.9509ZM57.9509 25.996H44.2829V27.996H57.9509V25.996ZM43.2861 27.0768C43.5397 30.2042 46.4098 32.314 49.3149 32.314V30.314C47.256 30.314 45.434 28.8198 45.2796 26.9152L43.2861 27.0768ZM49.3149 32.314C51.5818 32.314 53.4929 31.2066 54.8749 29.364L53.2749 28.164C52.2088 29.5854 50.8559 30.314 49.3149 30.314V32.314ZM44.2829 25.072H53.8029V23.072H44.2829V25.072ZM54.7614 23.787C53.8939 20.8691 51.6502 19.23 48.9409 19.23V21.23C50.7196 21.23 52.2158 22.2429 52.8443 24.357L54.7614 23.787ZM48.9409 19.23C46.2177 19.23 43.9906 20.958 43.3096 23.8422L45.2561 24.3018C45.7311 22.29 47.176 21.23 48.9409 21.23V19.23ZM59.2344 38.25H58.2344V39.25H59.2344V38.25ZM59.2344 36.55V35.55H58.2344V36.55H59.2344ZM76.2344 36.55H77.2344V35.55H76.2344V36.55ZM76.2344 38.25V39.25H77.2344V38.25H76.2344ZM60.2344 38.25V36.55H58.2344V38.25H60.2344ZM59.2344 37.55H76.2344V35.55H59.2344V37.55ZM75.2344 36.55V38.25H77.2344V36.55H75.2344ZM76.2344 37.25H59.2344V39.25H76.2344V37.25ZM79.2944 34H78.2944V35H79.2944V34ZM79.2944 27.268H80.2944V26.268H79.2944V27.268ZM76.7444 27.268H75.7444V28.268H76.7444V27.268ZM76.7444 23.528V22.528H75.7444V23.528H76.7444ZM79.2944 23.528V24.528H80.2944V23.528H79.2944ZM79.2944 12.648V11.648H78.2944V12.648H79.2944ZM83.2384 27.268V26.268H82.2384V27.268H83.2384ZM83.2384 34V35H84.2384V34H83.2384ZM83.2384 16.388V15.388H82.2384V16.388H83.2384ZM83.2384 23.528H82.2384V24.528H83.2384V23.528ZM80.2944 34V27.268H78.2944V34H80.2944ZM79.2944 26.268H76.7444V28.268H79.2944V26.268ZM77.7444 27.268V23.528H75.7444V27.268H77.7444ZM76.7444 24.528H79.2944V22.528H76.7444V24.528ZM80.2944 23.528V12.648H78.2944V23.528H80.2944ZM79.2944 13.648H89.4604V11.648H79.2944V13.648ZM89.4604 13.648C91.6158 13.648 93.2724 14.3518 94.386 15.4475C95.5007 16.5443 96.1444 18.1051 96.1444 19.958H98.1444C98.1444 17.6289 97.3261 15.5347 95.7887 14.022C94.2504 12.5082 92.065 11.648 89.4604 11.648V13.648ZM96.1444 19.958C96.1444 21.8109 95.5007 23.3717 94.386 24.4685C93.2724 25.5642 91.6158 26.268 89.4604 26.268V28.268C92.065 28.268 94.2504 27.4078 95.7887 25.894C97.3261 24.3813 98.1444 22.2871 98.1444 19.958H96.1444ZM89.4604 26.268H83.2384V28.268H89.4604V26.268ZM82.2384 27.268V34H84.2384V27.268H82.2384ZM83.2384 33H79.2944V35H83.2384V33ZM82.2384 16.388V23.528H84.2384V16.388H82.2384ZM83.2384 24.528H89.1544V22.528H83.2384V24.528ZM89.1544 24.528C90.7511 24.528 92.0364 24.0463 92.9254 23.1687C93.8103 22.2951 94.2004 21.1295 94.2004 19.958H92.2004C92.2004 20.6905 91.9614 21.3099 91.5203 21.7453C91.0834 22.1767 90.3456 22.528 89.1544 22.528V24.528ZM94.2004 19.958C94.2004 18.7865 93.8103 17.6209 92.9254 16.7473C92.0364 15.8697 90.7511 15.388 89.1544 15.388V17.388C90.3456 17.388 91.0834 17.7393 91.5203 18.1707C91.9614 18.6061 92.2004 19.2255 92.2004 19.958H94.2004ZM89.1544 15.388H83.2384V17.388H89.1544V15.388ZM112.678 28.764L113.165 27.8903L112.402 27.4656L111.878 28.164L112.678 28.764ZM115.67 30.43L116.453 31.0521L117.186 30.1295L116.157 29.5563L115.67 30.43ZM108.02 34.442V35.4421L108.032 35.4419L108.02 34.442ZM116.554 26.996V27.996H117.554V26.996H116.554ZM102.886 26.996V25.996H101.802L101.89 27.0768L102.886 26.996ZM102.886 24.072L101.913 23.8422L101.623 25.072H102.886V24.072ZM112.406 24.072V25.072H113.747L113.365 23.787L112.406 24.072ZM112.192 29.6377L115.184 31.3037L116.157 29.5563L113.165 27.8903L112.192 29.6377ZM114.887 29.8079C113.071 32.0935 110.619 33.4121 108.009 33.4421L108.032 35.4419C111.338 35.4039 114.325 33.7305 116.453 31.0521L114.887 29.8079ZM108.02 33.442C102.869 33.442 99.9424 29.6151 99.9424 25.772H97.9424C97.9424 30.6329 101.68 35.442 108.02 35.442V33.442ZM99.9424 25.772C99.9424 21.9289 102.869 18.102 108.02 18.102V16.102C101.68 16.102 97.9424 20.9111 97.9424 25.772H99.9424ZM108.02 18.102C111.02 18.102 115.554 20.5873 115.554 26.35H117.554C117.554 19.2607 111.889 16.102 108.02 16.102V18.102ZM115.554 26.35V26.996H117.554V26.35H115.554ZM116.554 25.996H102.886V27.996H116.554V25.996ZM101.89 27.0768C102.143 30.2042 105.013 32.314 107.918 32.314V30.314C105.859 30.314 104.038 28.8198 103.883 26.9152L101.89 27.0768ZM107.918 32.314C110.185 32.314 112.096 31.2066 113.478 29.364L111.878 28.164C110.812 29.5854 109.459 30.314 107.918 30.314V32.314ZM102.886 25.072H112.406V23.072H102.886V25.072ZM113.365 23.787C112.497 20.8691 110.254 19.23 107.544 19.23V21.23C109.323 21.23 110.819 22.2429 111.448 24.357L113.365 23.787ZM107.544 19.23C104.821 19.23 102.594 20.958 101.913 23.8422L103.86 24.3018C104.335 22.29 105.78 21.23 107.544 21.23V19.23ZM132.866 34H131.866V35H132.866V34ZM132.866 31.994H133.866V30.994H132.866V31.994ZM132.798 31.994V30.994H132.298L131.998 31.394L132.798 31.994ZM132.798 19.55L131.963 20.1L132.259 20.55H132.798V19.55ZM132.866 19.55V20.55H133.866V19.55H132.866ZM132.866 17.544V16.544H131.866V17.544H132.866ZM136.402 17.544H137.402V16.544H136.402V17.544ZM136.402 34V35H137.402V34H136.402ZM133.866 34V31.994H131.866V34H133.866ZM132.866 30.994H132.798V32.994H132.866V30.994ZM131.998 31.394C131.095 32.5976 129.376 33.442 127.392 33.442V35.442C129.896 35.442 132.257 34.3824 133.598 32.594L131.998 31.394ZM127.392 33.442C122.644 33.442 119.858 29.5815 119.858 25.772H117.858C117.858 30.4625 121.328 35.442 127.392 35.442V33.442ZM119.858 25.772C119.858 22.1852 122.865 18.102 127.562 18.102V16.102C121.583 16.102 117.858 21.2668 117.858 25.772H119.858ZM127.562 18.102C129.73 18.102 131.259 19.0313 131.963 20.1L133.633 19C132.501 17.2807 130.289 16.102 127.562 16.102V18.102ZM132.798 20.55H132.866V18.55H132.798V20.55ZM133.866 19.55V17.544H131.866V19.55H133.866ZM132.866 18.544H136.402V16.544H132.866V18.544ZM135.402 17.544V34H137.402V17.544H135.402ZM136.402 33H132.866V35H136.402V33ZM121.598 25.772C121.598 29.2697 124.413 32.11 127.834 32.11V30.11C125.543 30.11 123.598 28.1903 123.598 25.772H121.598ZM127.834 32.11C131.195 32.11 134.002 29.2612 134.002 25.772H132.002C132.002 28.1988 130.049 30.11 127.834 30.11V32.11ZM134.002 25.772C134.002 22.2828 131.195 19.434 127.834 19.434V21.434C130.049 21.434 132.002 23.3452 132.002 25.772H134.002ZM127.834 19.434C124.413 19.434 121.598 22.2743 121.598 25.772H123.598C123.598 23.3537 125.543 21.434 127.834 21.434V19.434ZM141.444 34H140.444V35H141.444V34ZM141.444 27.132H142.444V26.132H141.444V27.132ZM139.132 27.132H138.132V28.132H139.132V27.132ZM139.132 23.8V22.8H138.132V23.8H139.132ZM141.444 23.8V24.8H142.444V23.8H141.444ZM141.444 12.648V11.648H140.444V12.648H141.444ZM144.98 12.648H145.98V11.648H144.98V12.648ZM144.98 23.8H143.98V24.8H144.98V23.8ZM146.782 23.8V24.8H147.307L147.605 24.368L146.782 23.8ZM151.1 17.544V16.544H150.575L150.277 16.976L151.1 17.544ZM155.384 17.544L156.196 18.1279L157.335 16.544H155.384V17.544ZM149.808 25.296L148.996 24.7121L148.59 25.2765L148.978 25.8537L149.808 25.296ZM155.656 34V35H157.533L156.486 33.4423L155.656 34ZM151.474 34L150.63 34.5353L150.924 35H151.474V34ZM147.122 27.132L147.967 26.5967L147.672 26.132H147.122V27.132ZM144.98 27.132V26.132H143.98V27.132H144.98ZM144.98 34V35H145.98V34H144.98ZM142.444 34V27.132H140.444V34H142.444ZM141.444 26.132H139.132V28.132H141.444V26.132ZM140.132 27.132V23.8H138.132V27.132H140.132ZM139.132 24.8H141.444V22.8H139.132V24.8ZM142.444 23.8V12.648H140.444V23.8H142.444ZM141.444 13.648H144.98V11.648H141.444V13.648ZM143.98 12.648V23.8H145.98V12.648H143.98ZM144.98 24.8H146.782V22.8H144.98V24.8ZM147.605 24.368L151.923 18.112L150.277 16.976L145.959 23.232L147.605 24.368ZM151.1 18.544H155.384V16.544H151.1V18.544ZM154.572 16.9601L148.996 24.7121L150.62 25.8799L156.196 18.1279L154.572 16.9601ZM148.978 25.8537L154.826 34.5577L156.486 33.4423L150.638 24.7383L148.978 25.8537ZM155.656 33H151.474V35H155.656V33ZM152.319 33.4647L147.967 26.5967L146.278 27.6673L150.63 34.5353L152.319 33.4647ZM147.122 26.132H144.98V28.132H147.122V26.132ZM143.98 27.132V34H145.98V27.132H143.98ZM144.98 33H141.444V35H144.98V33Z" fill="black" mask="url(#path-1-outside-1_202_210)"/>
</svg>
