<svg width="160" height="46" viewBox="0 0 160 46" fill="none" xmlns="http://www.w3.org/2000/svg">
<mask id="path-1-outside-1_166_201" maskUnits="userSpaceOnUse" x="23" y="2" width="115" height="42" fill="black">
<rect fill="white" x="23" y="2" width="115" height="42"/>
<path d="M25.4561 33.5967C24.5277 32.8929 24.3031 32.1816 24.7822 31.4629L26.5117 28.8574C27.0807 28.0039 27.9118 27.959 29.0049 28.7227C29.8434 29.3066 30.9365 29.9131 32.2842 30.542C33.6468 31.1559 35.0768 31.4629 36.5742 31.4629C37.6224 31.4629 38.6331 31.3431 39.6064 31.1035C40.5798 30.8639 41.321 30.3997 41.8301 29.7109C42.3392 29.0221 42.5938 28.2061 42.5938 27.2627C42.5938 26.5889 42.4814 25.9974 42.2568 25.4883C42.0322 24.9792 41.6654 24.5599 41.1562 24.2305C40.6471 23.901 40.123 23.624 39.584 23.3994C38.6406 23.0101 37.4502 22.6283 36.0127 22.2539C34.5902 21.8646 33.1826 21.4004 31.79 20.8613C30.5472 20.3822 29.4092 19.7233 28.376 18.8848C27.3428 18.0462 26.5417 17.1029 25.9727 16.0547C25.4036 15.0065 25.1191 13.6064 25.1191 11.8545C25.1191 9.77311 25.793 7.99121 27.1406 6.50879C28.4883 5.02637 30.0381 4.07552 31.79 3.65625C33.542 3.23698 35.3089 3.02734 37.0908 3.02734C38.8577 3.02734 40.6771 3.29688 42.5488 3.83594C44.4355 4.375 45.8581 5.04883 46.8164 5.85742C47.7598 6.65104 47.9919 7.36979 47.5127 8.01367L45.6934 10.4619C45.0794 11.3005 44.2559 11.3678 43.2227 10.6641C42.5638 10.2148 41.6579 9.71322 40.5049 9.15918C39.3669 8.60514 38.1764 8.32812 36.9336 8.32812C36.0501 8.32812 35.234 8.40299 34.4854 8.55273C33.7516 8.70247 33.1003 9.06185 32.5312 9.63086C31.9622 10.1999 31.6777 10.9036 31.6777 11.7422C31.6777 12.5508 31.8874 13.2096 32.3066 13.7188C32.7259 14.2129 33.1901 14.5872 33.6992 14.8418C34.2083 15.0814 34.7249 15.2835 35.249 15.4482C36.8662 15.9723 38.3112 16.4365 39.584 16.8408C40.8568 17.2301 42.0322 17.6644 43.1104 18.1436C44.6077 18.8174 45.7533 19.4912 46.5469 20.165C47.3405 20.8389 47.9919 21.7598 48.501 22.9277C49.0251 24.0957 49.2871 25.4883 49.2871 27.1055C49.2871 29.5013 48.5234 31.4854 46.9961 33.0576C45.4688 34.6149 43.7692 35.6182 41.8975 36.0674C40.0407 36.5316 38.2288 36.7637 36.4619 36.7637C33.8564 36.7637 31.7376 36.5091 30.1055 36C28.4733 35.5059 26.9235 34.7048 25.4561 33.5967ZM54.1133 36C53.4492 36 53.1172 35.668 53.1172 35.0039V19.5645C53.1172 18.9004 53.4492 18.5684 54.1133 18.5684H56.7695C57.4336 18.5684 57.7656 18.9004 57.7656 19.5645V35.0039C57.7656 35.668 57.4336 36 56.7695 36H54.1133ZM54.1133 16.0117C53.4492 16.0117 53.1172 15.6797 53.1172 15.0156V12.8906C53.1172 12.2266 53.4492 11.8945 54.1133 11.8945H56.7695C57.4336 11.8945 57.7656 12.2266 57.7656 12.8906V15.0156C57.7656 15.6797 57.4336 16.0117 56.7695 16.0117H54.1133ZM112.119 36C111.455 36 111.123 35.668 111.123 35.0039V15.3975C111.123 14.8994 111.239 14.4456 111.472 14.0361L112.75 11.7949C112.993 11.3743 113.281 11.1641 113.613 11.1641H114.775C115.439 11.1641 115.771 11.4961 115.771 12.1602V35.0039C115.771 35.668 115.439 36 114.775 36H112.119Z"/>
<path d="M63.2773 36C62.6133 36 62.2812 35.668 62.2812 35.0039V19.5645C62.2812 18.9004 62.6133 18.5684 63.2773 18.5684H65.9004C66.5645 18.5684 66.8965 18.9004 66.8965 19.5645V20.5273H66.9629C67.2839 19.819 67.8262 19.2601 68.5898 18.8506C69.3535 18.4411 70.0674 18.2363 70.7314 18.2363C72.0596 18.2363 73.0889 18.5462 73.8193 19.166C74.5609 19.7858 75.07 20.4775 75.3467 21.2412H75.4131C76.376 19.9906 77.2448 19.1771 78.0195 18.8008C78.8053 18.4245 79.807 18.2363 81.0244 18.2363C82.6624 18.2363 84.0404 18.7786 85.1582 19.8633C86.2871 20.9479 86.8516 22.929 86.8516 25.8066V35.0039C86.8516 35.668 86.5195 36 85.8555 36H83.1992C82.5352 36 82.2031 35.668 82.2031 35.0039V27.002C82.2031 24.5892 82.0371 23.0674 81.7051 22.4365C81.3841 21.8057 80.8086 21.4902 79.9785 21.4902C79.2038 21.4902 78.4954 21.944 77.8535 22.8516C77.2116 23.7591 76.8906 25.6296 76.8906 28.4629V35.0039C76.8906 35.668 76.5586 36 75.8945 36H73.2383C72.5742 36 72.2422 35.668 72.2422 35.0039V27.002C72.2422 24.5892 72.0762 23.0674 71.7441 22.4365C71.4232 21.8057 70.8477 21.4902 70.0176 21.4902C69.2428 21.4902 68.5345 21.944 67.8926 22.8516C67.2507 23.748 66.9297 25.6185 66.9297 28.4629V35.0039C66.9297 35.668 66.5977 36 65.9336 36H63.2773ZM92.3301 42.6406C91.666 42.6406 91.334 42.3086 91.334 41.6445V19.5645C91.334 18.9004 91.666 18.5684 92.3301 18.5684H94.9531C95.5065 18.5684 95.8053 18.9004 95.8496 19.5645L95.916 20.5273H95.9824C96.5579 19.5755 97.1999 18.9557 97.9082 18.668C98.6165 18.3802 99.4688 18.2363 100.465 18.2363C103.066 18.2363 104.892 19.1383 105.943 20.9424C107.006 22.7354 107.537 24.8493 107.537 27.2842C107.537 29.7191 107.006 31.8385 105.943 33.6426C104.892 35.4355 103.066 36.332 100.465 36.332C99.4688 36.332 98.6165 36.1882 97.9082 35.9004C97.1999 35.6126 96.5579 34.9928 95.9824 34.041H95.916C95.9603 34.4837 95.9824 34.9264 95.9824 35.3691V41.6445C95.9824 42.3086 95.6504 42.6406 94.9863 42.6406H92.3301ZM95.9824 28.0312C95.9824 29.5254 96.2757 30.7428 96.8623 31.6836C97.46 32.6133 98.1738 33.0781 99.0039 33.0781C100.498 33.0781 101.472 32.5579 101.926 31.5176C102.391 30.4661 102.623 29.055 102.623 27.2842C102.623 25.5133 102.391 24.1077 101.926 23.0674C101.472 22.016 100.498 21.4902 99.0039 21.4902C98.1738 21.4902 97.46 21.9606 96.8623 22.9014C96.2757 23.8311 95.9824 25.043 95.9824 26.5371V28.0312ZM119.357 27.2842C119.357 24.484 120.055 22.276 121.449 20.6602C122.855 19.0443 124.836 18.2363 127.393 18.2363C130.359 18.2363 132.561 19 134 20.5273C135.439 22.0547 136.158 24.5117 136.158 27.8984C136.158 28.5625 135.848 28.8945 135.229 28.8945H124.271C124.449 30.7318 124.902 31.8883 125.633 32.3643C126.363 32.8402 127.21 33.0781 128.173 33.0781C129.091 33.0781 129.794 32.9564 130.281 32.7129C130.768 32.4694 131.178 32.1374 131.51 31.7168C131.886 31.2298 132.351 31.1523 132.904 31.4844L134.564 32.4971C135.217 32.8955 135.312 33.3714 134.847 33.9248C134.172 34.7327 133.38 35.3359 132.473 35.7344C131.565 36.1328 130.132 36.332 128.173 36.332C124.996 36.332 122.733 35.5241 121.383 33.9082C120.033 32.2923 119.357 30.0843 119.357 27.2842ZM124.288 25.5742H131.51C131.51 24.3789 131.211 23.4049 130.613 22.6523C130.016 21.8887 129.064 21.5068 127.758 21.5068C126.717 21.5068 125.893 21.8721 125.284 22.6025C124.675 23.3219 124.343 24.3125 124.288 25.5742Z"/>
</mask>
<path d="M25.4561 33.5967C24.5277 32.8929 24.3031 32.1816 24.7822 31.4629L26.5117 28.8574C27.0807 28.0039 27.9118 27.959 29.0049 28.7227C29.8434 29.3066 30.9365 29.9131 32.2842 30.542C33.6468 31.1559 35.0768 31.4629 36.5742 31.4629C37.6224 31.4629 38.6331 31.3431 39.6064 31.1035C40.5798 30.8639 41.321 30.3997 41.8301 29.7109C42.3392 29.0221 42.5938 28.2061 42.5938 27.2627C42.5938 26.5889 42.4814 25.9974 42.2568 25.4883C42.0322 24.9792 41.6654 24.5599 41.1562 24.2305C40.6471 23.901 40.123 23.624 39.584 23.3994C38.6406 23.0101 37.4502 22.6283 36.0127 22.2539C34.5902 21.8646 33.1826 21.4004 31.79 20.8613C30.5472 20.3822 29.4092 19.7233 28.376 18.8848C27.3428 18.0462 26.5417 17.1029 25.9727 16.0547C25.4036 15.0065 25.1191 13.6064 25.1191 11.8545C25.1191 9.77311 25.793 7.99121 27.1406 6.50879C28.4883 5.02637 30.0381 4.07552 31.79 3.65625C33.542 3.23698 35.3089 3.02734 37.0908 3.02734C38.8577 3.02734 40.6771 3.29688 42.5488 3.83594C44.4355 4.375 45.8581 5.04883 46.8164 5.85742C47.7598 6.65104 47.9919 7.36979 47.5127 8.01367L45.6934 10.4619C45.0794 11.3005 44.2559 11.3678 43.2227 10.6641C42.5638 10.2148 41.6579 9.71322 40.5049 9.15918C39.3669 8.60514 38.1764 8.32812 36.9336 8.32812C36.0501 8.32812 35.234 8.40299 34.4854 8.55273C33.7516 8.70247 33.1003 9.06185 32.5312 9.63086C31.9622 10.1999 31.6777 10.9036 31.6777 11.7422C31.6777 12.5508 31.8874 13.2096 32.3066 13.7188C32.7259 14.2129 33.1901 14.5872 33.6992 14.8418C34.2083 15.0814 34.7249 15.2835 35.249 15.4482C36.8662 15.9723 38.3112 16.4365 39.584 16.8408C40.8568 17.2301 42.0322 17.6644 43.1104 18.1436C44.6077 18.8174 45.7533 19.4912 46.5469 20.165C47.3405 20.8389 47.9919 21.7598 48.501 22.9277C49.0251 24.0957 49.2871 25.4883 49.2871 27.1055C49.2871 29.5013 48.5234 31.4854 46.9961 33.0576C45.4688 34.6149 43.7692 35.6182 41.8975 36.0674C40.0407 36.5316 38.2288 36.7637 36.4619 36.7637C33.8564 36.7637 31.7376 36.5091 30.1055 36C28.4733 35.5059 26.9235 34.7048 25.4561 33.5967ZM54.1133 36C53.4492 36 53.1172 35.668 53.1172 35.0039V19.5645C53.1172 18.9004 53.4492 18.5684 54.1133 18.5684H56.7695C57.4336 18.5684 57.7656 18.9004 57.7656 19.5645V35.0039C57.7656 35.668 57.4336 36 56.7695 36H54.1133ZM54.1133 16.0117C53.4492 16.0117 53.1172 15.6797 53.1172 15.0156V12.8906C53.1172 12.2266 53.4492 11.8945 54.1133 11.8945H56.7695C57.4336 11.8945 57.7656 12.2266 57.7656 12.8906V15.0156C57.7656 15.6797 57.4336 16.0117 56.7695 16.0117H54.1133ZM112.119 36C111.455 36 111.123 35.668 111.123 35.0039V15.3975C111.123 14.8994 111.239 14.4456 111.472 14.0361L112.75 11.7949C112.993 11.3743 113.281 11.1641 113.613 11.1641H114.775C115.439 11.1641 115.771 11.4961 115.771 12.1602V35.0039C115.771 35.668 115.439 36 114.775 36H112.119Z" fill="#1E1E1E"/>
<path d="M63.2773 36C62.6133 36 62.2812 35.668 62.2812 35.0039V19.5645C62.2812 18.9004 62.6133 18.5684 63.2773 18.5684H65.9004C66.5645 18.5684 66.8965 18.9004 66.8965 19.5645V20.5273H66.9629C67.2839 19.819 67.8262 19.2601 68.5898 18.8506C69.3535 18.4411 70.0674 18.2363 70.7314 18.2363C72.0596 18.2363 73.0889 18.5462 73.8193 19.166C74.5609 19.7858 75.07 20.4775 75.3467 21.2412H75.4131C76.376 19.9906 77.2448 19.1771 78.0195 18.8008C78.8053 18.4245 79.807 18.2363 81.0244 18.2363C82.6624 18.2363 84.0404 18.7786 85.1582 19.8633C86.2871 20.9479 86.8516 22.929 86.8516 25.8066V35.0039C86.8516 35.668 86.5195 36 85.8555 36H83.1992C82.5352 36 82.2031 35.668 82.2031 35.0039V27.002C82.2031 24.5892 82.0371 23.0674 81.7051 22.4365C81.3841 21.8057 80.8086 21.4902 79.9785 21.4902C79.2038 21.4902 78.4954 21.944 77.8535 22.8516C77.2116 23.7591 76.8906 25.6296 76.8906 28.4629V35.0039C76.8906 35.668 76.5586 36 75.8945 36H73.2383C72.5742 36 72.2422 35.668 72.2422 35.0039V27.002C72.2422 24.5892 72.0762 23.0674 71.7441 22.4365C71.4232 21.8057 70.8477 21.4902 70.0176 21.4902C69.2428 21.4902 68.5345 21.944 67.8926 22.8516C67.2507 23.748 66.9297 25.6185 66.9297 28.4629V35.0039C66.9297 35.668 66.5977 36 65.9336 36H63.2773ZM92.3301 42.6406C91.666 42.6406 91.334 42.3086 91.334 41.6445V19.5645C91.334 18.9004 91.666 18.5684 92.3301 18.5684H94.9531C95.5065 18.5684 95.8053 18.9004 95.8496 19.5645L95.916 20.5273H95.9824C96.5579 19.5755 97.1999 18.9557 97.9082 18.668C98.6165 18.3802 99.4688 18.2363 100.465 18.2363C103.066 18.2363 104.892 19.1383 105.943 20.9424C107.006 22.7354 107.537 24.8493 107.537 27.2842C107.537 29.7191 107.006 31.8385 105.943 33.6426C104.892 35.4355 103.066 36.332 100.465 36.332C99.4688 36.332 98.6165 36.1882 97.9082 35.9004C97.1999 35.6126 96.5579 34.9928 95.9824 34.041H95.916C95.9603 34.4837 95.9824 34.9264 95.9824 35.3691V41.6445C95.9824 42.3086 95.6504 42.6406 94.9863 42.6406H92.3301ZM95.9824 28.0312C95.9824 29.5254 96.2757 30.7428 96.8623 31.6836C97.46 32.6133 98.1738 33.0781 99.0039 33.0781C100.498 33.0781 101.472 32.5579 101.926 31.5176C102.391 30.4661 102.623 29.055 102.623 27.2842C102.623 25.5133 102.391 24.1077 101.926 23.0674C101.472 22.016 100.498 21.4902 99.0039 21.4902C98.1738 21.4902 97.46 21.9606 96.8623 22.9014C96.2757 23.8311 95.9824 25.043 95.9824 26.5371V28.0312ZM119.357 27.2842C119.357 24.484 120.055 22.276 121.449 20.6602C122.855 19.0443 124.836 18.2363 127.393 18.2363C130.359 18.2363 132.561 19 134 20.5273C135.439 22.0547 136.158 24.5117 136.158 27.8984C136.158 28.5625 135.848 28.8945 135.229 28.8945H124.271C124.449 30.7318 124.902 31.8883 125.633 32.3643C126.363 32.8402 127.21 33.0781 128.173 33.0781C129.091 33.0781 129.794 32.9564 130.281 32.7129C130.768 32.4694 131.178 32.1374 131.51 31.7168C131.886 31.2298 132.351 31.1523 132.904 31.4844L134.564 32.4971C135.217 32.8955 135.312 33.3714 134.847 33.9248C134.172 34.7327 133.38 35.3359 132.473 35.7344C131.565 36.1328 130.132 36.332 128.173 36.332C124.996 36.332 122.733 35.5241 121.383 33.9082C120.033 32.2923 119.357 30.0843 119.357 27.2842ZM124.288 25.5742H131.51C131.51 24.3789 131.211 23.4049 130.613 22.6523C130.016 21.8887 129.064 21.5068 127.758 21.5068C126.717 21.5068 125.893 21.8721 125.284 22.6025C124.675 23.3219 124.343 24.3125 124.288 25.5742Z" fill="white"/>
<path d="M25.4561 33.5967L24.8519 34.3936L24.8535 34.3947L25.4561 33.5967ZM24.7822 31.4629L25.6143 32.0176L25.6154 32.0159L24.7822 31.4629ZM26.5117 28.8574L25.6797 28.3027L25.6786 28.3044L26.5117 28.8574ZM29.0049 28.7227L28.4322 29.5424L28.4334 29.5433L29.0049 28.7227ZM32.2842 30.542L31.8613 31.4483L31.8734 31.4537L32.2842 30.542ZM41.8301 29.7109L42.6343 30.3053L41.8301 29.7109ZM41.1562 24.2305L41.6995 23.3909L41.1562 24.2305ZM39.584 23.3994L39.9686 22.4763L39.9655 22.475L39.584 23.3994ZM36.0127 22.2539L35.7487 23.2185L35.7607 23.2216L36.0127 22.2539ZM31.79 20.8613L32.151 19.9288L32.1498 19.9283L31.79 20.8613ZM42.5488 3.83594L42.2721 4.79688L42.2741 4.79746L42.5488 3.83594ZM46.8164 5.85742L46.1715 6.62171L46.1726 6.62265L46.8164 5.85742ZM47.5127 8.01367L46.7105 7.41666L46.7101 7.41721L47.5127 8.01367ZM45.6934 10.4619L44.8907 9.86544L44.8865 9.87118L45.6934 10.4619ZM43.2227 10.6641L42.6593 11.4903L42.6597 11.4905L43.2227 10.6641ZM40.5049 9.15918L40.0672 10.0583L40.0718 10.0605L40.5049 9.15918ZM34.4854 8.55273L34.2892 7.57215L34.2854 7.57293L34.4854 8.55273ZM32.5312 9.63086L31.8241 8.92375L32.5312 9.63086ZM32.3066 13.7188L31.5347 14.3545L31.5394 14.3601L31.5441 14.3657L32.3066 13.7188ZM33.6992 14.8418L33.252 15.7362L33.2627 15.7415L33.2734 15.7466L33.6992 14.8418ZM35.249 15.4482L35.5573 14.4969L35.5489 14.4942L35.249 15.4482ZM39.584 16.8408L39.2812 17.7939L39.2915 17.7971L39.584 16.8408ZM43.1104 18.1436L43.5207 17.2316L43.5165 17.2297L43.1104 18.1436ZM48.501 22.9277L47.5842 23.3273L47.5886 23.3371L48.501 22.9277ZM46.9961 33.0576L47.71 33.7578L47.7134 33.7544L46.9961 33.0576ZM41.8975 36.0674L41.6641 35.095L41.6549 35.0972L41.8975 36.0674ZM30.1055 36L30.4033 35.0453L30.3952 35.0429L30.1055 36ZM26.0602 32.7998C25.6748 32.5077 25.5687 32.3097 25.5449 32.2343C25.536 32.2061 25.5366 32.1912 25.5393 32.1758C25.5429 32.1559 25.5567 32.104 25.6143 32.0176L23.9502 30.9082C23.5723 31.4749 23.4191 32.1443 23.6377 32.8365C23.8385 33.4724 24.3089 33.9819 24.8519 34.3936L26.0602 32.7998ZM25.6154 32.0159L27.3449 29.4105L25.6786 28.3044L23.9491 30.9098L25.6154 32.0159ZM27.3438 29.4121C27.4987 29.1797 27.5886 29.1836 27.6157 29.1821C27.7092 29.1771 27.9662 29.2168 28.4322 29.5424L29.5776 27.9029C28.9505 27.4648 28.2453 27.1452 27.5078 27.1851C26.7039 27.2285 26.0937 27.6816 25.6797 28.3027L27.3438 29.4121ZM28.4334 29.5433C29.3348 30.171 30.4829 30.8049 31.8613 31.4482L32.7071 29.6358C31.3902 29.0213 30.352 28.4422 29.5764 27.902L28.4334 29.5433ZM31.8734 31.4537C33.3654 32.126 34.9355 32.4629 36.5742 32.4629V30.4629C35.2182 30.4629 33.9282 30.1859 32.695 29.6303L31.8734 31.4537ZM36.5742 32.4629C37.6993 32.4629 38.7904 32.3342 39.8455 32.0745L39.3674 30.1325C38.4758 30.352 37.5455 30.4629 36.5742 30.4629V32.4629ZM39.8455 32.0745C41.0048 31.7891 41.9635 31.2128 42.6343 30.3053L41.0259 29.1165C40.6784 29.5867 40.1547 29.9387 39.3674 30.1325L39.8455 32.0745ZM42.6343 30.3053C43.2835 29.4269 43.5938 28.3972 43.5938 27.2627H41.5938C41.5938 28.0149 41.3949 28.6173 41.0259 29.1165L42.6343 30.3053ZM43.5938 27.2627C43.5938 26.4786 43.463 25.7448 43.1718 25.0846L41.3419 25.8919C41.4999 26.25 41.5938 26.6992 41.5938 27.2627H43.5938ZM43.1718 25.0846C42.8614 24.3811 42.357 23.8164 41.6995 23.3909L40.613 25.07C40.9737 25.3034 41.2031 25.5772 41.3419 25.8919L43.1718 25.0846ZM41.6995 23.3909C41.142 23.0302 40.565 22.7248 39.9686 22.4763L39.1994 24.3225C39.6811 24.5232 40.1522 24.7719 40.613 25.07L41.6995 23.3909ZM39.9655 22.475C38.9658 22.0625 37.7284 21.6673 36.2647 21.2862L35.7607 23.2216C37.172 23.5892 38.3155 23.9577 39.2025 24.3238L39.9655 22.475ZM36.2767 21.2894C34.8874 20.9092 33.5122 20.4557 32.151 19.9288L31.429 21.7939C32.853 22.3451 34.2929 22.82 35.7487 23.2184L36.2767 21.2894ZM32.1498 19.9283C31.0046 19.4868 29.9579 18.8807 29.0061 18.1083L27.7458 19.6612C28.8605 20.5659 30.0898 21.2776 31.4303 21.7944L32.1498 19.9283ZM29.0061 18.1083C28.0629 17.3428 27.3512 16.4981 26.8515 15.5776L25.0938 16.5318C25.7321 17.7077 26.6227 18.7497 27.7458 19.6612L29.0061 18.1083ZM26.8515 15.5776C26.3906 14.7286 26.1191 13.5124 26.1191 11.8545H24.1191C24.1191 13.7005 24.4167 15.2844 25.0938 16.5318L26.8515 15.5776ZM26.1191 11.8545C26.1191 10.0112 26.7073 8.47208 27.8806 7.18146L26.4007 5.83612C24.8787 7.51034 24.1191 9.53499 24.1191 11.8545H26.1191ZM27.8806 7.18146C29.1089 5.83032 30.4878 4.99614 32.0228 4.62879L31.5573 2.68371C29.5884 3.15491 27.8677 4.22241 26.4007 5.83612L27.8806 7.18146ZM32.0228 4.62879C33.6993 4.22756 35.3882 4.02734 37.0908 4.02734V2.02734C35.2297 2.02734 33.3846 2.2464 31.5573 2.68371L32.0228 4.62879ZM37.0908 4.02734C38.7551 4.02734 40.4812 4.2811 42.2721 4.79688L42.8256 2.875C40.873 2.31265 38.9604 2.02734 37.0908 2.02734V4.02734ZM42.2741 4.79746C44.0936 5.31731 45.365 5.94122 46.1715 6.62171L47.4613 5.09313C46.3511 4.15644 44.7775 3.43269 42.8235 2.87441L42.2741 4.79746ZM46.1726 6.62265C46.5826 6.96749 46.7138 7.19801 46.7464 7.29899C46.7531 7.31982 46.7544 7.33136 46.7547 7.33503C46.7548 7.33705 46.7548 7.33796 46.7548 7.33803C46.7548 7.33809 46.7548 7.33809 46.7548 7.33831C46.7547 7.33855 46.7545 7.33976 46.7537 7.34214C46.753 7.34456 46.7515 7.34871 46.7488 7.35471C46.7433 7.36665 46.7322 7.38742 46.7105 7.41666L48.3149 8.61068C48.7334 8.04835 48.8722 7.37365 48.6496 6.68441C48.4501 6.06664 47.9936 5.54097 47.4602 5.0922L46.1726 6.62265ZM46.7101 7.41721L44.8907 9.86545L46.496 11.0584L48.3153 8.61013L46.7101 7.41721ZM44.8865 9.87118C44.7033 10.1214 44.5845 10.1405 44.5337 10.1447C44.441 10.1523 44.2059 10.1238 43.7856 9.83758L42.6597 11.4905C43.2727 11.9081 43.9659 12.1978 44.6968 12.138C45.4695 12.0748 46.0695 11.6409 46.5002 11.0527L44.8865 9.87118ZM43.786 9.83784C43.0686 9.3487 42.1127 8.82231 40.938 8.25784L40.0718 10.0605C41.2031 10.6041 42.059 11.081 42.6593 11.4903L43.786 9.83784ZM40.9426 8.26007C39.6708 7.64091 38.331 7.32812 36.9336 7.32812V9.32812C38.0219 9.32812 39.0629 9.56938 40.0672 10.0583L40.9426 8.26007ZM36.9336 7.32812C35.9943 7.32812 35.1116 7.40767 34.2892 7.57215L34.6815 9.53332C35.3565 9.39832 36.106 9.32812 36.9336 9.32812V7.32812ZM34.2854 7.57293C33.3451 7.76483 32.521 8.22692 31.8241 8.92375L33.2384 10.338C33.6795 9.89678 34.1582 9.64011 34.6853 9.53254L34.2854 7.57293ZM31.8241 8.92375C31.059 9.68891 30.6777 10.6509 30.6777 11.7422H32.6777C32.6777 11.1564 32.8655 10.7108 33.2384 10.338L31.8241 8.92375ZM30.6777 11.7422C30.6777 12.7285 30.9369 13.6285 31.5347 14.3545L33.0786 13.083C32.8379 12.7908 32.6777 12.373 32.6777 11.7422H30.6777ZM31.5441 14.3657C32.0387 14.9486 32.6066 15.4135 33.252 15.7362L34.1464 13.9474C33.7736 13.761 33.4131 13.4772 33.0691 13.0718L31.5441 14.3657ZM33.2734 15.7466C33.8224 16.0049 34.381 16.2237 34.9492 16.4022L35.5489 14.4942C35.0688 14.3434 34.5943 14.1578 34.125 13.937L33.2734 15.7466ZM34.9407 16.3995C36.5593 16.9241 38.0062 17.3889 39.2812 17.7939L39.8867 15.8877C38.6162 15.4842 37.1731 15.0206 35.5573 14.4969L34.9407 16.3995ZM39.2915 17.7971C40.5304 18.176 41.6674 18.5966 42.7042 19.0574L43.5165 17.2297C42.397 16.7322 41.1832 16.2842 39.8765 15.8846L39.2915 17.7971ZM42.7 19.0555C44.155 19.7103 45.2064 20.3388 45.8996 20.9273L47.1941 19.4027C46.3001 18.6437 45.0605 17.9245 43.5207 17.2316L42.7 19.0555ZM45.8996 20.9273C46.5538 21.4828 47.1227 22.2685 47.5843 23.3273L49.4177 22.5281C48.861 21.2511 48.1272 20.195 47.1941 19.4027L45.8996 20.9273ZM47.5886 23.3371C48.0418 24.3472 48.2871 25.5935 48.2871 27.1055H50.2871C50.2871 25.3831 50.0083 23.8442 49.4133 22.5183L47.5886 23.3371ZM48.2871 27.1055C48.2871 29.2676 47.6072 30.9934 46.2788 32.3608L47.7134 33.7544C49.4397 31.9773 50.2871 29.735 50.2871 27.1055H48.2871ZM46.2822 32.3574C44.8683 33.799 43.3298 34.6952 41.6641 35.095L42.1308 37.0398C44.2086 36.5411 46.0692 35.4308 47.71 33.7578L46.2822 32.3574ZM41.6549 35.0972C39.8709 35.5432 38.1406 35.7637 36.4619 35.7637V37.7637C38.3171 37.7637 40.2104 37.5199 42.14 37.0375L41.6549 35.0972ZM36.4619 35.7637C33.9104 35.7637 31.9025 35.513 30.4032 35.0454L29.8077 36.9546C31.5727 37.5052 33.8025 37.7637 36.4619 37.7637V35.7637ZM30.3952 35.0429C28.8844 34.5855 27.4394 33.8412 26.0587 32.7986L24.8535 34.3947C26.4076 35.5683 28.0622 36.4262 29.8157 36.9571L30.3952 35.0429ZM54.1133 35C54.0716 35 54.0414 34.9974 54.0212 34.9945C54.0012 34.9916 53.9929 34.9888 53.9937 34.9891C53.9949 34.9895 54.0051 34.993 54.0208 35.0024C54.0285 35.0071 54.0372 35.0129 54.0463 35.02C54.0554 35.0271 54.0645 35.0351 54.0733 35.0439C54.0821 35.0527 54.0901 35.0618 54.0972 35.0709C54.1043 35.08 54.1101 35.0886 54.1148 35.0964C54.1242 35.1121 54.1277 35.1223 54.1281 35.1235C54.1284 35.1243 54.1256 35.116 54.1227 35.0959C54.1198 35.0758 54.1172 35.0456 54.1172 35.0039H52.1172C52.1172 35.4901 52.2394 36.0384 52.6591 36.4581C53.0788 36.8778 53.6271 37 54.1133 37V35ZM54.1172 35.0039V19.5645H52.1172V35.0039H54.1172ZM54.1172 19.5645C54.1172 19.5227 54.1198 19.4926 54.1227 19.4724C54.1256 19.4523 54.1284 19.444 54.1281 19.4449C54.1277 19.4461 54.1242 19.4562 54.1148 19.472C54.1101 19.4797 54.1043 19.4884 54.0972 19.4975C54.0901 19.5066 54.0821 19.5157 54.0733 19.5245C54.0645 19.5333 54.0554 19.5413 54.0463 19.5484C54.0372 19.5555 54.0285 19.5613 54.0208 19.5659C54.0051 19.5754 53.9949 19.5789 53.9937 19.5793C53.9929 19.5796 54.0012 19.5767 54.0212 19.5739C54.0414 19.571 54.0716 19.5684 54.1133 19.5684V17.5684C53.6271 17.5684 53.0788 17.6906 52.6591 18.1103C52.2394 18.53 52.1172 19.0783 52.1172 19.5645H54.1172ZM54.1133 19.5684H56.7695V17.5684H54.1133V19.5684ZM56.7695 19.5684C56.8113 19.5684 56.8414 19.571 56.8616 19.5739C56.8817 19.5767 56.89 19.5796 56.8891 19.5793C56.8879 19.5789 56.8777 19.5754 56.862 19.5659C56.8543 19.5613 56.8456 19.5555 56.8365 19.5484C56.8274 19.5413 56.8183 19.5333 56.8095 19.5245C56.8007 19.5157 56.7927 19.5066 56.7856 19.4975C56.7785 19.4884 56.7727 19.4797 56.7681 19.472C56.7586 19.4562 56.7551 19.4461 56.7547 19.4449C56.7544 19.444 56.7572 19.4523 56.7601 19.4724C56.763 19.4926 56.7656 19.5227 56.7656 19.5645H58.7656C58.7656 19.0783 58.6434 18.53 58.2237 18.1103C57.804 17.6906 57.2557 17.5684 56.7695 17.5684V19.5684ZM56.7656 19.5645V35.0039H58.7656V19.5645H56.7656ZM56.7656 35.0039C56.7656 35.0456 56.763 35.0758 56.7601 35.0959C56.7572 35.116 56.7544 35.1243 56.7547 35.1235C56.7551 35.1223 56.7586 35.1121 56.7681 35.0964C56.7727 35.0886 56.7785 35.08 56.7856 35.0709C56.7927 35.0618 56.8007 35.0527 56.8095 35.0439C56.8183 35.0351 56.8274 35.0271 56.8365 35.02C56.8456 35.0129 56.8543 35.0071 56.862 35.0024C56.8777 34.993 56.8879 34.9895 56.8891 34.9891C56.89 34.9888 56.8817 34.9916 56.8616 34.9945C56.8414 34.9974 56.8113 35 56.7695 35V37C57.2557 37 57.804 36.8778 58.2237 36.4581C58.6434 36.0384 58.7656 35.4901 58.7656 35.0039H56.7656ZM56.7695 35H54.1133V37H56.7695V35ZM54.1133 15.0117C54.0716 15.0117 54.0414 15.0091 54.0212 15.0062C54.0012 15.0033 53.9929 15.0005 53.9937 15.0008C53.9949 15.0012 54.0051 15.0047 54.0208 15.0142C54.0285 15.0188 54.0372 15.0246 54.0463 15.0317C54.0554 15.0388 54.0645 15.0468 54.0733 15.0556C54.0821 15.0644 54.0901 15.0735 54.0972 15.0826C54.1043 15.0917 54.1101 15.1004 54.1148 15.1081C54.1242 15.1238 54.1277 15.134 54.1281 15.1352C54.1284 15.136 54.1256 15.1278 54.1227 15.1077C54.1198 15.0875 54.1172 15.0573 54.1172 15.0156H52.1172C52.1172 15.5018 52.2394 16.0501 52.6591 16.4698C53.0788 16.8895 53.6271 17.0117 54.1133 17.0117V15.0117ZM54.1172 15.0156V12.8906H52.1172V15.0156H54.1172ZM54.1172 12.8906C54.1172 12.8489 54.1198 12.8188 54.1227 12.7986C54.1256 12.7785 54.1284 12.7702 54.1281 12.7711C54.1277 12.7722 54.1242 12.7824 54.1148 12.7981C54.1101 12.8059 54.1043 12.8145 54.0972 12.8236C54.0901 12.8328 54.0821 12.8419 54.0733 12.8507C54.0645 12.8595 54.0554 12.8674 54.0463 12.8745C54.0372 12.8816 54.0285 12.8874 54.0208 12.8921C54.0051 12.9015 53.9949 12.9051 53.9937 12.9055C53.9929 12.9058 54.0012 12.9029 54.0212 12.9C54.0414 12.8972 54.0716 12.8945 54.1133 12.8945V10.8945C53.6271 10.8945 53.0788 11.0168 52.6591 11.4364C52.2394 11.8561 52.1172 12.4044 52.1172 12.8906H54.1172ZM54.1133 12.8945H56.7695V10.8945H54.1133V12.8945ZM56.7695 12.8945C56.8113 12.8945 56.8414 12.8972 56.8616 12.9C56.8817 12.9029 56.89 12.9058 56.8891 12.9055C56.8879 12.9051 56.8777 12.9015 56.862 12.8921C56.8543 12.8874 56.8456 12.8816 56.8365 12.8745C56.8274 12.8674 56.8183 12.8595 56.8095 12.8507C56.8007 12.8419 56.7927 12.8328 56.7856 12.8236C56.7785 12.8145 56.7727 12.8059 56.7681 12.7981C56.7586 12.7824 56.7551 12.7722 56.7547 12.7711C56.7544 12.7702 56.7572 12.7785 56.7601 12.7986C56.763 12.8188 56.7656 12.8489 56.7656 12.8906H58.7656C58.7656 12.4044 58.6434 11.8561 58.2237 11.4364C57.804 11.0168 57.2557 10.8945 56.7695 10.8945V12.8945ZM56.7656 12.8906V15.0156H58.7656V12.8906H56.7656ZM56.7656 15.0156C56.7656 15.0573 56.763 15.0875 56.7601 15.1077C56.7572 15.1278 56.7544 15.136 56.7547 15.1352C56.7551 15.134 56.7586 15.1238 56.7681 15.1081C56.7727 15.1004 56.7785 15.0917 56.7856 15.0826C56.7927 15.0735 56.8007 15.0644 56.8095 15.0556C56.8183 15.0468 56.8274 15.0388 56.8365 15.0317C56.8456 15.0246 56.8543 15.0188 56.862 15.0142C56.8777 15.0047 56.8879 15.0012 56.8891 15.0008C56.89 15.0005 56.8817 15.0033 56.8616 15.0062C56.8414 15.0091 56.8113 15.0117 56.7695 15.0117V17.0117C57.2557 17.0117 57.804 16.8895 58.2237 16.4698C58.6434 16.0501 58.7656 15.5018 58.7656 15.0156H56.7656ZM56.7695 15.0117H54.1133V17.0117H56.7695V15.0117ZM66.8965 20.5273H65.8965V21.5273H66.8965V20.5273ZM66.9629 20.5273V21.5273H67.6076L67.8737 20.9401L66.9629 20.5273ZM68.5898 18.8506L69.0624 19.7319L69.0624 19.7319L68.5898 18.8506ZM73.8193 19.166L73.1723 19.9285L73.178 19.9333L73.8193 19.166ZM75.3467 21.2412L74.4065 21.5819L74.6454 22.2412H75.3467V21.2412ZM75.4131 21.2412V22.2412H75.9052L76.2054 21.8513L75.4131 21.2412ZM78.0195 18.8008L77.5876 17.8988L77.5826 17.9013L78.0195 18.8008ZM85.1582 19.8633L84.4618 20.581L84.4654 20.5844L85.1582 19.8633ZM81.7051 22.4365L80.8137 22.89L80.8202 22.9023L81.7051 22.4365ZM71.7441 22.4365L70.8528 22.89L70.8592 22.9023L71.7441 22.4365ZM67.8926 22.8516L68.7056 23.4338L68.709 23.429L67.8926 22.8516ZM63.2773 35C63.2356 35 63.2055 34.9974 63.1853 34.9945C63.1652 34.9916 63.1569 34.9888 63.1578 34.9891C63.159 34.9895 63.1691 34.993 63.1848 35.0024C63.1926 35.0071 63.2012 35.0129 63.2104 35.02C63.2195 35.0271 63.2286 35.0351 63.2374 35.0439C63.2462 35.0527 63.2542 35.0618 63.2613 35.0709C63.2684 35.08 63.2742 35.0886 63.2788 35.0964C63.2882 35.1121 63.2918 35.1223 63.2922 35.1235C63.2925 35.1243 63.2896 35.116 63.2868 35.0959C63.2839 35.0758 63.2812 35.0456 63.2812 35.0039H61.2812C61.2812 35.4901 61.4035 36.0384 61.8232 36.4581C62.2429 36.8778 62.7912 37 63.2773 37V35ZM63.2812 35.0039V19.5645H61.2812V35.0039H63.2812ZM63.2812 19.5645C63.2812 19.5227 63.2839 19.4926 63.2868 19.4724C63.2896 19.4523 63.2925 19.444 63.2922 19.4449C63.2918 19.4461 63.2882 19.4562 63.2788 19.472C63.2742 19.4797 63.2684 19.4884 63.2613 19.4975C63.2542 19.5066 63.2462 19.5157 63.2374 19.5245C63.2286 19.5333 63.2195 19.5413 63.2104 19.5484C63.2012 19.5555 63.1926 19.5613 63.1848 19.5659C63.1691 19.5754 63.159 19.5789 63.1578 19.5793C63.1569 19.5796 63.1652 19.5767 63.1853 19.5739C63.2055 19.571 63.2356 19.5684 63.2773 19.5684V17.5684C62.7912 17.5684 62.2429 17.6906 61.8232 18.1103C61.4035 18.53 61.2812 19.0783 61.2812 19.5645H63.2812ZM63.2773 19.5684H65.9004V17.5684H63.2773V19.5684ZM65.9004 19.5684C65.9421 19.5684 65.9723 19.571 65.9924 19.5739C66.0125 19.5767 66.0208 19.5796 66.02 19.5793C66.0188 19.5789 66.0086 19.5754 65.9929 19.5659C65.9851 19.5613 65.9765 19.5555 65.9674 19.5484C65.9582 19.5413 65.9491 19.5333 65.9404 19.5245C65.9316 19.5157 65.9236 19.5066 65.9165 19.4975C65.9094 19.4884 65.9036 19.4797 65.8989 19.472C65.8895 19.4562 65.8859 19.4461 65.8855 19.4449C65.8853 19.444 65.8881 19.4523 65.891 19.4724C65.8939 19.4926 65.8965 19.5227 65.8965 19.5645H67.8965C67.8965 19.0783 67.7743 18.53 67.3546 18.1103C66.9349 17.6906 66.3866 17.5684 65.9004 17.5684V19.5684ZM65.8965 19.5645V20.5273H67.8965V19.5645H65.8965ZM66.8965 21.5273H66.9629V19.5273H66.8965V21.5273ZM67.8737 20.9401C68.0937 20.4547 68.469 20.0501 69.0624 19.7319L68.1173 17.9693C67.1833 18.4701 66.474 19.1834 66.052 20.1146L67.8737 20.9401ZM69.0624 19.7319C69.7237 19.3773 70.2749 19.2363 70.7314 19.2363V17.2363C69.8598 17.2363 68.9834 17.5049 68.1173 17.9693L69.0624 19.7319ZM70.7314 19.2363C71.9137 19.2363 72.6817 19.5122 73.1724 19.9285L74.4663 18.4035C73.4961 17.5803 72.2055 17.2363 70.7314 17.2363V19.2363ZM73.178 19.9333C73.8098 20.4614 74.2005 21.0133 74.4065 21.5819L76.2869 20.9006C75.9395 19.9417 75.3119 19.1102 74.4606 18.3987L73.178 19.9333ZM75.3467 22.2412H75.4131V20.2412H75.3467V22.2412ZM76.2054 21.8513C77.14 20.6374 77.8936 19.9737 78.4564 19.7003L77.5826 17.9013C76.596 18.3805 75.6119 19.3437 74.6207 20.6312L76.2054 21.8513ZM78.4514 19.7027C79.0599 19.4113 79.9008 19.2363 81.0244 19.2363V17.2363C79.7132 17.2363 78.5508 17.4376 77.5876 17.8989L78.4514 19.7027ZM81.0244 19.2363C82.4173 19.2363 83.541 19.6875 84.4618 20.581L85.8546 19.1456C84.5397 17.8698 82.9076 17.2363 81.0244 17.2363V19.2363ZM84.4654 20.5844C85.2868 21.3736 85.8516 22.9937 85.8516 25.8066H87.8516C87.8516 22.8644 87.2874 20.5223 85.851 19.1422L84.4654 20.5844ZM85.8516 25.8066V35.0039H87.8516V25.8066H85.8516ZM85.8516 35.0039C85.8516 35.0456 85.8489 35.0758 85.846 35.0959C85.8432 35.116 85.8403 35.1243 85.8406 35.1235C85.841 35.1223 85.8446 35.1121 85.854 35.0964C85.8587 35.0886 85.8645 35.08 85.8716 35.0709C85.8787 35.0618 85.8866 35.0527 85.8954 35.0439C85.9042 35.0351 85.9133 35.0271 85.9225 35.02C85.9316 35.0129 85.9402 35.0071 85.948 35.0024C85.9637 34.993 85.9739 34.9895 85.975 34.9891C85.9759 34.9888 85.9676 34.9916 85.9475 34.9945C85.9273 34.9974 85.8972 35 85.8555 35V37C86.3416 37 86.89 36.8778 87.3096 36.4581C87.7293 36.0384 87.8516 35.4901 87.8516 35.0039H85.8516ZM85.8555 35H83.1992V37H85.8555V35ZM83.1992 35C83.1575 35 83.1274 34.9974 83.1072 34.9945C83.0871 34.9916 83.0788 34.9888 83.0797 34.9891C83.0808 34.9895 83.091 34.993 83.1067 35.0024C83.1145 35.0071 83.1231 35.0129 83.1322 35.02C83.1414 35.0271 83.1505 35.0351 83.1593 35.0439C83.1681 35.0527 83.176 35.0618 83.1831 35.0709C83.1902 35.08 83.196 35.0886 83.2007 35.0964C83.2101 35.1121 83.2137 35.1223 83.2141 35.1235C83.2144 35.1243 83.2115 35.116 83.2086 35.0959C83.2058 35.0758 83.2031 35.0456 83.2031 35.0039H81.2031C81.2031 35.4901 81.3253 36.0384 81.745 36.4581C82.1647 36.8778 82.713 37 83.1992 37V35ZM83.2031 35.0039V27.002H81.2031V35.0039H83.2031ZM83.2031 27.002C83.2031 25.7774 83.1612 24.7538 83.0727 23.9426C82.9881 23.1671 82.8503 22.4653 82.59 21.9708L80.8202 22.9023C80.8919 23.0386 81.0031 23.4132 81.0845 24.1595C81.162 24.87 81.2031 25.8137 81.2031 27.002H83.2031ZM82.5964 21.9831C82.3522 21.5032 81.9914 21.1119 81.5133 20.8499C81.0442 20.5928 80.518 20.4902 79.9785 20.4902V22.4902C80.2691 22.4902 80.4457 22.5454 80.5521 22.6037C80.6495 22.6571 80.737 22.739 80.8138 22.89L82.5964 21.9831ZM79.9785 20.4902C78.7533 20.4902 77.7796 21.2244 77.0371 22.2741L78.6699 23.429C79.2113 22.6636 79.6542 22.4902 79.9785 22.4902V20.4902ZM77.0371 22.2741C76.5894 22.907 76.316 23.7737 76.1458 24.7659C75.9723 25.777 75.8906 27.0143 75.8906 28.4629H77.8906C77.8906 27.0781 77.9695 25.9635 78.1169 25.1042C78.2676 24.226 78.4757 23.7037 78.6699 23.429L77.0371 22.2741ZM75.8906 28.4629V35.0039H77.8906V28.4629H75.8906ZM75.8906 35.0039C75.8906 35.0456 75.888 35.0758 75.8851 35.0959C75.8822 35.116 75.8794 35.1243 75.8797 35.1235C75.8801 35.1223 75.8836 35.1121 75.8931 35.0964C75.8977 35.0886 75.9035 35.08 75.9106 35.0709C75.9177 35.0618 75.9257 35.0527 75.9345 35.0439C75.9433 35.0351 75.9524 35.0271 75.9615 35.02C75.9706 35.0129 75.9793 35.0071 75.987 35.0024C76.0027 34.993 76.0129 34.9895 76.0141 34.9891C76.015 34.9888 76.0067 34.9916 75.9866 34.9945C75.9664 34.9974 75.9363 35 75.8945 35V37C76.3807 37 76.929 36.8778 77.3487 36.4581C77.7684 36.0384 77.8906 35.4901 77.8906 35.0039H75.8906ZM75.8945 35H73.2383V37H75.8945V35ZM73.2383 35C73.1966 35 73.1664 34.9974 73.1462 34.9945C73.1262 34.9916 73.1179 34.9888 73.1187 34.9891C73.1199 34.9895 73.1301 34.993 73.1458 35.0024C73.1535 35.0071 73.1622 35.0129 73.1713 35.02C73.1804 35.0271 73.1895 35.0351 73.1983 35.0439C73.2071 35.0527 73.2151 35.0618 73.2222 35.0709C73.2293 35.08 73.2351 35.0886 73.2398 35.0964C73.2492 35.1121 73.2527 35.1223 73.2531 35.1235C73.2534 35.1243 73.2506 35.116 73.2477 35.0959C73.2448 35.0758 73.2422 35.0456 73.2422 35.0039H71.2422C71.2422 35.4901 71.3644 36.0384 71.7841 36.4581C72.2038 36.8778 72.7521 37 73.2383 37V35ZM73.2422 35.0039V27.002H71.2422V35.0039H73.2422ZM73.2422 27.002C73.2422 25.7774 73.2003 24.7538 73.1118 23.9426C73.0272 23.1671 72.8893 22.4653 72.6291 21.9708L70.8592 22.9023C70.931 23.0386 71.0422 23.4132 71.1236 24.1595C71.2011 24.87 71.2422 25.8137 71.2422 27.002H73.2422ZM72.6354 21.9831C72.3913 21.5032 72.0305 21.1119 71.5524 20.8499C71.0833 20.5928 70.557 20.4902 70.0176 20.4902V22.4902C70.3082 22.4902 70.4847 22.5454 70.5912 22.6037C70.6886 22.6571 70.7761 22.739 70.8529 22.89L72.6354 21.9831ZM70.0176 20.4902C68.7924 20.4902 67.8186 21.2244 67.0762 22.2741L68.709 23.429C69.2504 22.6636 69.6933 22.4902 70.0176 22.4902V20.4902ZM67.0795 22.2694C66.6286 22.8991 66.3549 23.7662 66.1848 24.7576C66.0113 25.7689 65.9297 27.009 65.9297 28.4629H67.9297C67.9297 27.0724 68.0086 25.9551 68.156 25.0959C68.3068 24.2169 68.5146 23.7005 68.7056 23.4337L67.0795 22.2694ZM65.9297 28.4629V35.0039H67.9297V28.4629H65.9297ZM65.9297 35.0039C65.9297 35.0456 65.9271 35.0758 65.9242 35.0959C65.9213 35.116 65.9185 35.1243 65.9187 35.1235C65.9191 35.1223 65.9227 35.1121 65.9321 35.0964C65.9368 35.0886 65.9426 35.08 65.9497 35.0709C65.9568 35.0618 65.9648 35.0527 65.9736 35.0439C65.9824 35.0351 65.9914 35.0271 66.0006 35.02C66.0097 35.0129 66.0183 35.0071 66.0261 35.0024C66.0418 34.993 66.052 34.9895 66.0532 34.9891C66.054 34.9888 66.0457 34.9916 66.0256 34.9945C66.0055 34.9974 65.9753 35 65.9336 35V37C66.4198 37 66.9681 36.8778 67.3878 36.4581C67.8075 36.0384 67.9297 35.4901 67.9297 35.0039H65.9297ZM65.9336 35H63.2773V37H65.9336V35ZM95.8496 19.5645L94.8518 19.631L94.852 19.6333L95.8496 19.5645ZM95.916 20.5273L94.9184 20.5961L94.9826 21.5273H95.916V20.5273ZM95.9824 20.5273V21.5273H96.5464L96.8382 21.0448L95.9824 20.5273ZM97.9082 18.668L98.2846 19.5944L97.9082 18.668ZM105.943 20.9424L105.079 21.4459L105.083 21.4522L105.943 20.9424ZM105.943 33.6426L105.082 33.1351L105.081 33.1367L105.943 33.6426ZM97.9082 35.9004L98.2846 34.9739L97.9082 35.9004ZM95.9824 34.041L96.8382 33.5236L96.5464 33.041H95.9824V34.041ZM95.916 34.041V33.041H94.811L94.921 34.1405L95.916 34.041ZM96.8623 31.6836L96.0137 32.2127L96.0211 32.2244L96.8623 31.6836ZM101.926 31.5176L101.011 31.1132L101.009 31.1178L101.926 31.5176ZM101.926 23.0674L101.008 23.4637L101.013 23.4753L101.926 23.0674ZM96.8623 22.9014L96.0182 22.3651L96.0166 22.3678L96.8623 22.9014ZM92.3301 41.6406C92.2884 41.6406 92.2582 41.638 92.238 41.6351C92.218 41.6322 92.2097 41.6294 92.2105 41.6297C92.2117 41.6301 92.2219 41.6336 92.2376 41.6431C92.2453 41.6477 92.254 41.6535 92.2631 41.6606C92.2722 41.6677 92.2813 41.6757 92.2901 41.6845C92.2989 41.6933 92.3069 41.7024 92.314 41.7115C92.3211 41.7206 92.3269 41.7293 92.3316 41.737C92.341 41.7527 92.3445 41.7629 92.3449 41.7641C92.3452 41.765 92.3424 41.7567 92.3395 41.7366C92.3366 41.7164 92.334 41.6863 92.334 41.6445H90.334C90.334 42.1307 90.4562 42.679 90.8759 43.0987C91.2956 43.5184 91.8439 43.6406 92.3301 43.6406V41.6406ZM92.334 41.6445V19.5645H90.334V41.6445H92.334ZM92.334 19.5645C92.334 19.5227 92.3366 19.4926 92.3395 19.4724C92.3424 19.4523 92.3452 19.444 92.3449 19.4449C92.3445 19.4461 92.341 19.4562 92.3316 19.472C92.3269 19.4797 92.3211 19.4884 92.314 19.4975C92.3069 19.5066 92.2989 19.5157 92.2901 19.5245C92.2813 19.5333 92.2722 19.5413 92.2631 19.5484C92.254 19.5555 92.2453 19.5613 92.2376 19.5659C92.2219 19.5754 92.2117 19.5789 92.2105 19.5793C92.2097 19.5796 92.218 19.5767 92.238 19.5739C92.2582 19.571 92.2884 19.5684 92.3301 19.5684V17.5684C91.8439 17.5684 91.2956 17.6906 90.8759 18.1103C90.4562 18.53 90.334 19.0783 90.334 19.5645H92.334ZM92.3301 19.5684H94.9531V17.5684H92.3301V19.5684ZM94.9531 19.5684C94.9927 19.5684 94.9881 19.5744 94.9574 19.5624C94.9419 19.5563 94.9226 19.5468 94.902 19.5327C94.8814 19.5185 94.8635 19.5025 94.849 19.4863C94.8194 19.4534 94.8163 19.4343 94.8232 19.4543C94.8309 19.4766 94.8452 19.5312 94.8518 19.631L96.8474 19.4979C96.8173 19.0473 96.6928 18.5453 96.3356 18.1484C95.9527 17.7229 95.4403 17.5684 94.9531 17.5684V19.5684ZM94.852 19.6333L94.9184 20.5961L96.9136 20.4585L96.8472 19.4957L94.852 19.6333ZM95.916 21.5273H95.9824V19.5273H95.916V21.5273ZM96.8382 21.0448C97.3509 20.1967 97.8485 19.7716 98.2846 19.5944L97.5318 17.7415C96.5513 18.1398 95.765 18.9543 95.1267 20.0099L96.8382 21.0448ZM98.2846 19.5944C98.8432 19.3675 99.5606 19.2363 100.465 19.2363V17.2363C99.3769 17.2363 98.3899 17.3929 97.5318 17.7415L98.2846 19.5944ZM100.465 19.2363C102.812 19.2363 104.253 20.0281 105.079 21.4459L106.807 20.4388C105.531 18.2486 103.32 17.2363 100.465 17.2363V19.2363ZM105.083 21.4522C106.04 23.0665 106.537 24.9981 106.537 27.2842H108.537C108.537 24.7004 107.972 22.4042 106.804 20.4326L105.083 21.4522ZM106.537 27.2842C106.537 29.57 106.04 31.5084 105.082 33.1351L106.805 34.1501C107.972 32.1687 108.537 29.8681 108.537 27.2842H106.537ZM105.081 33.1367C104.256 34.5437 102.814 35.332 100.465 35.332V37.332C103.317 37.332 105.528 36.3274 106.806 34.1484L105.081 33.1367ZM100.465 35.332C99.5606 35.332 98.8432 35.2009 98.2846 34.9739L97.5318 36.8269C98.3899 37.1755 99.3769 37.332 100.465 37.332V35.332ZM98.2846 34.9739C97.8485 34.7967 97.3509 34.3716 96.8382 33.5236L95.1267 34.5584C95.765 35.6141 96.5513 36.4285 97.5318 36.8269L98.2846 34.9739ZM95.9824 33.041H95.916V35.041H95.9824V33.041ZM94.921 34.1405C94.962 34.5503 94.9824 34.9598 94.9824 35.3691H96.9824C96.9824 34.893 96.9586 34.4171 96.9111 33.9415L94.921 34.1405ZM94.9824 35.3691V41.6445H96.9824V35.3691H94.9824ZM94.9824 41.6445C94.9824 41.6863 94.9798 41.7164 94.9769 41.7366C94.974 41.7567 94.9712 41.765 94.9715 41.7641C94.9719 41.7629 94.9754 41.7527 94.9849 41.737C94.9895 41.7293 94.9953 41.7206 95.0024 41.7115C95.0095 41.7024 95.0175 41.6933 95.0263 41.6845C95.0351 41.6757 95.0442 41.6677 95.0533 41.6606C95.0624 41.6535 95.0711 41.6477 95.0788 41.6431C95.0945 41.6336 95.1047 41.6301 95.1059 41.6297C95.1068 41.6294 95.0985 41.6322 95.0784 41.6351C95.0582 41.638 95.0281 41.6406 94.9863 41.6406V43.6406C95.4725 43.6406 96.0208 43.5184 96.4405 43.0987C96.8602 42.679 96.9824 42.1307 96.9824 41.6445H94.9824ZM94.9863 41.6406H92.3301V43.6406H94.9863V41.6406ZM94.9824 28.0312C94.9824 29.6494 95.2994 31.0671 96.0137 32.2127L97.7109 31.1545C97.252 30.4186 96.9824 29.4014 96.9824 28.0312H94.9824ZM96.0211 32.2244C96.7347 33.3344 97.7244 34.0781 99.0039 34.0781V32.0781C98.6233 32.0781 98.1852 31.8922 97.7035 31.1428L96.0211 32.2244ZM99.0039 34.0781C99.8598 34.0781 100.652 33.9301 101.326 33.5701C102.018 33.2008 102.528 32.6376 102.842 31.9174L101.009 31.1178C100.87 31.4379 100.666 31.655 100.384 31.8059C100.084 31.9661 99.6421 32.0781 99.0039 32.0781V34.0781ZM102.84 31.9219C103.384 30.6931 103.623 29.1266 103.623 27.2842H101.623C101.623 28.9834 101.398 30.2392 101.011 31.1132L102.84 31.9219ZM103.623 27.2842C103.623 25.4426 103.384 23.8794 102.839 22.6594L101.013 23.4753C101.397 24.3361 101.623 25.5841 101.623 27.2842H103.623ZM102.844 22.6711C102.531 21.9467 102.022 21.3782 101.33 21.0045C100.655 20.6402 99.8612 20.4902 99.0039 20.4902V22.4902C99.6407 22.4902 100.081 22.6032 100.38 22.7645C100.662 22.9166 100.867 23.1367 101.008 23.4636L102.844 22.6711ZM99.0039 20.4902C97.7187 20.4902 96.7292 21.246 96.0182 22.3651L97.7064 23.4376C98.1907 22.6753 98.629 22.4902 99.0039 22.4902V20.4902ZM96.0166 22.3678C95.2991 23.5049 94.9824 24.9198 94.9824 26.5371H96.9824C96.9824 25.1662 97.2523 24.1572 97.708 23.435L96.0166 22.3678ZM94.9824 26.5371V28.0312H96.9824V26.5371H94.9824ZM111.472 14.0361L110.603 13.5407L110.602 13.5425L111.472 14.0361ZM112.75 11.7949L111.885 11.2939L111.881 11.2995L112.75 11.7949ZM112.119 35C112.077 35 112.047 34.9974 112.027 34.9945C112.007 34.9916 111.999 34.9888 112 34.9891C112.001 34.9895 112.011 34.993 112.027 35.0024C112.034 35.0071 112.043 35.0129 112.052 35.02C112.061 35.0271 112.07 35.0351 112.079 35.0439C112.088 35.0527 112.096 35.0618 112.103 35.0709C112.11 35.08 112.116 35.0886 112.121 35.0964C112.13 35.1121 112.134 35.1223 112.134 35.1235C112.134 35.1243 112.131 35.116 112.129 35.0959C112.126 35.0758 112.123 35.0456 112.123 35.0039H110.123C110.123 35.4901 110.245 36.0384 110.665 36.4581C111.085 36.8778 111.633 37 112.119 37V35ZM112.123 35.0039V15.3975H110.123V35.0039H112.123ZM112.123 15.3975C112.123 15.0621 112.199 14.78 112.341 14.5297L110.602 13.5425C110.279 14.1113 110.123 14.7367 110.123 15.3975H112.123ZM112.34 14.5316L113.619 12.2904L111.881 11.2995L110.603 13.5407L112.34 14.5316ZM113.615 12.296C113.652 12.2327 113.683 12.1902 113.706 12.1631C113.729 12.1361 113.74 12.1278 113.738 12.1292C113.736 12.1312 113.721 12.1414 113.694 12.1505C113.666 12.1598 113.638 12.1641 113.613 12.1641V10.1641C112.774 10.1641 112.216 10.7217 111.885 11.2939L113.615 12.296ZM113.613 12.1641H114.775V10.1641H113.613V12.1641ZM114.775 12.1641C114.817 12.1641 114.847 12.1667 114.867 12.1696C114.888 12.1724 114.896 12.1753 114.895 12.175C114.894 12.1746 114.884 12.1711 114.868 12.1616C114.86 12.157 114.851 12.1512 114.842 12.1441C114.833 12.137 114.824 12.129 114.815 12.1202C114.807 12.1114 114.799 12.1023 114.791 12.0932C114.784 12.0841 114.779 12.0754 114.774 12.0677C114.764 12.0519 114.761 12.0418 114.761 12.0406C114.76 12.0397 114.763 12.048 114.766 12.0681C114.769 12.0883 114.771 12.1184 114.771 12.1602H116.771C116.771 11.674 116.649 11.1257 116.23 10.706C115.81 10.2863 115.262 10.1641 114.775 10.1641V12.1641ZM114.771 12.1602V35.0039H116.771V12.1602H114.771ZM114.771 35.0039C114.771 35.0456 114.769 35.0758 114.766 35.0959C114.763 35.116 114.76 35.1243 114.761 35.1235C114.761 35.1223 114.764 35.1121 114.774 35.0964C114.779 35.0886 114.784 35.08 114.791 35.0709C114.799 35.0618 114.807 35.0527 114.815 35.0439C114.824 35.0351 114.833 35.0271 114.842 35.02C114.851 35.0129 114.86 35.0071 114.868 35.0024C114.884 34.993 114.894 34.9895 114.895 34.9891C114.896 34.9888 114.888 34.9916 114.867 34.9945C114.847 34.9974 114.817 35 114.775 35V37C115.262 37 115.81 36.8778 116.23 36.4581C116.649 36.0384 116.771 35.4901 116.771 35.0039H114.771ZM114.775 35H112.119V37H114.775V35ZM121.449 20.6602L120.695 20.0038L120.692 20.0068L121.449 20.6602ZM134 20.5273L133.272 21.213L134 20.5273ZM124.271 28.8945V27.8945H123.17L123.276 28.9905L124.271 28.8945ZM131.51 31.7168L132.295 32.3365L132.301 32.3282L131.51 31.7168ZM132.904 31.4844L133.425 30.6306L133.419 30.6269L132.904 31.4844ZM134.564 32.4971L135.085 31.6434L135.085 31.6434L134.564 32.4971ZM134.847 33.9248L134.081 33.2816L134.079 33.2836L134.847 33.9248ZM124.288 25.5742L123.289 25.5304L123.243 26.5742H124.288V25.5742ZM131.51 25.5742V26.5742H132.51V25.5742H131.51ZM130.613 22.6523L129.826 23.2687L129.83 23.2742L130.613 22.6523ZM125.284 22.6025L126.048 23.2485L126.052 23.2427L125.284 22.6025ZM120.357 27.2842C120.357 24.6478 121.012 22.6975 122.206 21.3135L120.692 20.0068C119.097 21.8546 118.357 24.3203 118.357 27.2842H120.357ZM122.204 21.3165C123.382 19.9614 125.064 19.2363 127.393 19.2363V17.2363C124.608 17.2363 122.327 18.1272 120.695 20.0038L122.204 21.3165ZM127.393 19.2363C130.199 19.2363 132.089 19.9576 133.272 21.213L134.728 19.8417C133.033 18.0424 130.518 17.2363 127.393 17.2363V19.2363ZM133.272 21.213C134.456 22.4693 135.158 24.6179 135.158 27.8984H137.158C137.158 24.4056 136.422 21.6401 134.728 19.8417L133.272 21.213ZM135.158 27.8984C135.158 27.9898 135.147 28.0309 135.145 28.0372C135.145 28.0392 135.147 28.0313 135.155 28.0168C135.163 28.002 135.176 27.9831 135.195 27.9632C135.213 27.9432 135.234 27.9264 135.254 27.9133C135.274 27.9004 135.29 27.8936 135.299 27.8905C135.314 27.8851 135.297 27.8945 135.229 27.8945V29.8945C135.711 29.8945 136.252 29.7621 136.657 29.3278C137.05 28.9066 137.158 28.3681 137.158 27.8984H135.158ZM135.229 27.8945H124.271V29.8945H135.229V27.8945ZM123.276 28.9905C123.37 29.9613 123.541 30.8096 123.814 31.5051C124.085 32.1978 124.487 32.8115 125.087 33.2021L126.179 31.5264C126.048 31.4411 125.858 31.2385 125.676 30.7747C125.495 30.3136 125.35 29.6651 125.267 28.7986L123.276 28.9905ZM125.087 33.2021C125.997 33.7948 127.037 34.0781 128.173 34.0781V32.0781C127.383 32.0781 126.73 31.8856 126.179 31.5264L125.087 33.2021ZM128.173 34.0781C129.154 34.0781 130.038 33.9524 130.728 33.6073L129.834 31.8185C129.55 31.9603 129.029 32.0781 128.173 32.0781V34.0781ZM130.728 33.6073C131.345 33.2992 131.87 32.8742 132.295 32.3364L130.725 31.0972C130.485 31.4005 130.192 31.6396 129.834 31.8185L130.728 33.6073ZM132.301 32.3282C132.343 32.2739 132.367 32.2581 132.366 32.2587C132.365 32.2593 132.359 32.2634 132.347 32.2682C132.335 32.273 132.321 32.2773 132.305 32.2799C132.271 32.2855 132.254 32.2799 132.263 32.2823C132.276 32.2854 132.317 32.2984 132.39 32.3419L133.419 30.6269C133.014 30.3838 132.517 30.2169 131.976 30.3071C131.426 30.3987 131.012 30.7251 130.718 31.1053L132.301 32.3282ZM132.384 32.3381L134.044 33.3508L135.085 31.6434L133.425 30.6307L132.384 32.3381ZM134.044 33.3507C134.092 33.3805 134.128 33.4059 134.152 33.4257C134.176 33.4454 134.187 33.4574 134.189 33.46C134.191 33.4624 134.184 33.454 134.173 33.4338C134.163 33.413 134.151 33.3834 134.144 33.3468C134.136 33.3098 134.135 33.2742 134.138 33.2431C134.141 33.2128 134.147 33.1929 134.15 33.1854C134.152 33.1784 134.151 33.1835 134.141 33.2009C134.13 33.2184 134.111 33.2454 134.081 33.2816L135.612 34.568C135.942 34.176 136.236 33.6169 136.106 32.9589C135.98 32.3221 135.516 31.9059 135.085 31.6434L134.044 33.3507ZM134.079 33.2836C133.497 33.9806 132.828 34.4862 132.071 34.8187L132.875 36.65C133.932 36.1857 134.846 35.4849 135.614 34.566L134.079 33.2836ZM132.071 34.8187C131.361 35.1301 130.102 35.332 128.173 35.332V37.332C130.161 37.332 131.769 37.1355 132.875 36.65L132.071 34.8187ZM128.173 35.332C125.14 35.332 123.23 34.5597 122.15 33.267L120.615 34.5494C122.236 36.4885 124.853 37.332 128.173 37.332V35.332ZM122.15 33.267C120.994 31.8828 120.357 29.9278 120.357 27.2842H118.357C118.357 30.2408 119.072 32.7018 120.615 34.5494L122.15 33.267ZM124.288 26.5742H131.51V24.5742H124.288V26.5742ZM132.51 25.5742C132.51 24.2094 132.166 22.9995 131.396 22.0305L129.83 23.2742C130.256 23.8104 130.51 24.5484 130.51 25.5742H132.51ZM131.401 22.036C130.553 20.9525 129.257 20.5068 127.758 20.5068V22.5068C128.871 22.5068 129.478 22.8248 129.826 23.2687L131.401 22.036ZM127.758 20.5068C126.452 20.5068 125.334 20.9806 124.516 21.9624L126.052 23.2427C126.452 22.7635 126.983 22.5068 127.758 22.5068V20.5068ZM124.521 21.9566C123.727 22.8945 123.351 24.1223 123.289 25.5304L125.287 25.618C125.336 24.5027 125.624 23.7493 126.048 23.2485L124.521 21.9566Z" fill="#1E1E1E" mask="url(#path-1-outside-1_166_201)"/>
</svg>
