<svg width="40" height="40" viewBox="0 0 40 40" fill="none" xmlns="http://www.w3.org/2000/svg">
<g clip-path="url(#clip0_152_203)">
<mask id="path-1-outside-1_152_203" maskUnits="userSpaceOnUse" x="7" y="2" width="28" height="36" fill="black">
<rect fill="white" x="7" y="2" width="28" height="36"/>
<path d="M9.28613 33.5967C8.35775 32.8929 8.13314 32.1816 8.6123 31.4629L10.3418 28.8574C10.9108 28.0039 11.7419 27.959 12.835 28.7227C13.6735 29.3066 14.7666 29.9131 16.1143 30.542C17.4769 31.1559 18.9069 31.4629 20.4043 31.4629C21.4525 31.4629 22.4632 31.3431 23.4365 31.1035C24.4098 30.8639 25.151 30.3997 25.6602 29.7109C26.1693 29.0221 26.4238 28.2061 26.4238 27.2627C26.4238 26.5889 26.3115 25.9974 26.0869 25.4883C25.8623 24.9792 25.4954 24.5599 24.9863 24.2305C24.4772 23.901 23.9531 23.624 23.4141 23.3994C22.4707 23.0101 21.2803 22.6283 19.8428 22.2539C18.4202 21.8646 17.0127 21.4004 15.6201 20.8613C14.3773 20.3822 13.2393 19.7233 12.2061 18.8848C11.1729 18.0462 10.3717 17.1029 9.80273 16.0547C9.23372 15.0065 8.94922 13.6064 8.94922 11.8545C8.94922 9.77311 9.62305 7.99121 10.9707 6.50879C12.3184 5.02637 13.8682 4.07552 15.6201 3.65625C17.3721 3.23698 19.139 3.02734 20.9209 3.02734C22.6878 3.02734 24.5072 3.29688 26.3789 3.83594C28.2656 4.375 29.6882 5.04883 30.6465 5.85742C31.5898 6.65104 31.8219 7.36979 31.3428 8.01367L29.5234 10.4619C28.9095 11.3005 28.0859 11.3678 27.0527 10.6641C26.3939 10.2148 25.488 9.71322 24.335 9.15918C23.1969 8.60514 22.0065 8.32812 20.7637 8.32812C19.8802 8.32812 19.0641 8.40299 18.3154 8.55273C17.5817 8.70247 16.9303 9.06185 16.3613 9.63086C15.7923 10.1999 15.5078 10.9036 15.5078 11.7422C15.5078 12.5508 15.7174 13.2096 16.1367 13.7188C16.556 14.2129 17.0202 14.5872 17.5293 14.8418C18.0384 15.0814 18.555 15.2835 19.0791 15.4482C20.6963 15.9723 22.1413 16.4365 23.4141 16.8408C24.6868 17.2301 25.8623 17.6644 26.9404 18.1436C28.4378 18.8174 29.5833 19.4912 30.377 20.165C31.1706 20.8389 31.8219 21.7598 32.3311 22.9277C32.8551 24.0957 33.1172 25.4883 33.1172 27.1055C33.1172 29.5013 32.3535 31.4854 30.8262 33.0576C29.2988 34.6149 27.5993 35.6182 25.7275 36.0674C23.8708 36.5316 22.0589 36.7637 20.292 36.7637C17.6865 36.7637 15.5677 36.5091 13.9355 36C12.3034 35.5059 10.7536 34.7048 9.28613 33.5967Z"/>
</mask>
<path d="M9.28613 33.5967C8.35775 32.8929 8.13314 32.1816 8.6123 31.4629L10.3418 28.8574C10.9108 28.0039 11.7419 27.959 12.835 28.7227C13.6735 29.3066 14.7666 29.9131 16.1143 30.542C17.4769 31.1559 18.9069 31.4629 20.4043 31.4629C21.4525 31.4629 22.4632 31.3431 23.4365 31.1035C24.4098 30.8639 25.151 30.3997 25.6602 29.7109C26.1693 29.0221 26.4238 28.2061 26.4238 27.2627C26.4238 26.5889 26.3115 25.9974 26.0869 25.4883C25.8623 24.9792 25.4954 24.5599 24.9863 24.2305C24.4772 23.901 23.9531 23.624 23.4141 23.3994C22.4707 23.0101 21.2803 22.6283 19.8428 22.2539C18.4202 21.8646 17.0127 21.4004 15.6201 20.8613C14.3773 20.3822 13.2393 19.7233 12.2061 18.8848C11.1729 18.0462 10.3717 17.1029 9.80273 16.0547C9.23372 15.0065 8.94922 13.6064 8.94922 11.8545C8.94922 9.77311 9.62305 7.99121 10.9707 6.50879C12.3184 5.02637 13.8682 4.07552 15.6201 3.65625C17.3721 3.23698 19.139 3.02734 20.9209 3.02734C22.6878 3.02734 24.5072 3.29688 26.3789 3.83594C28.2656 4.375 29.6882 5.04883 30.6465 5.85742C31.5898 6.65104 31.8219 7.36979 31.3428 8.01367L29.5234 10.4619C28.9095 11.3005 28.0859 11.3678 27.0527 10.6641C26.3939 10.2148 25.488 9.71322 24.335 9.15918C23.1969 8.60514 22.0065 8.32812 20.7637 8.32812C19.8802 8.32812 19.0641 8.40299 18.3154 8.55273C17.5817 8.70247 16.9303 9.06185 16.3613 9.63086C15.7923 10.1999 15.5078 10.9036 15.5078 11.7422C15.5078 12.5508 15.7174 13.2096 16.1367 13.7188C16.556 14.2129 17.0202 14.5872 17.5293 14.8418C18.0384 15.0814 18.555 15.2835 19.0791 15.4482C20.6963 15.9723 22.1413 16.4365 23.4141 16.8408C24.6868 17.2301 25.8623 17.6644 26.9404 18.1436C28.4378 18.8174 29.5833 19.4912 30.377 20.165C31.1706 20.8389 31.8219 21.7598 32.3311 22.9277C32.8551 24.0957 33.1172 25.4883 33.1172 27.1055C33.1172 29.5013 32.3535 31.4854 30.8262 33.0576C29.2988 34.6149 27.5993 35.6182 25.7275 36.0674C23.8708 36.5316 22.0589 36.7637 20.292 36.7637C17.6865 36.7637 15.5677 36.5091 13.9355 36C12.3034 35.5059 10.7536 34.7048 9.28613 33.5967Z" fill="#1E1E1E"/>
<path d="M9.28613 33.5967L8.68203 34.3936L8.68353 34.3947L9.28613 33.5967ZM8.6123 31.4629L9.44436 32.0176L9.44546 32.0159L8.6123 31.4629ZM10.3418 28.8574L9.50975 28.3027L9.50864 28.3044L10.3418 28.8574ZM12.835 28.7227L12.2623 29.5424L12.2635 29.5433L12.835 28.7227ZM16.1143 30.542L15.6913 31.4483L15.7035 31.4537L16.1143 30.542ZM25.6602 29.7109L26.4643 30.3053L25.6602 29.7109ZM24.9863 24.2305L25.5296 23.3909L24.9863 24.2305ZM23.4141 23.3994L23.7987 22.4763L23.7955 22.475L23.4141 23.3994ZM19.8428 22.2539L19.5788 23.2185L19.5908 23.2216L19.8428 22.2539ZM15.6201 20.8613L15.9811 19.9288L15.9798 19.9283L15.6201 20.8613ZM26.3789 3.83594L26.1022 4.79688L26.1042 4.79746L26.3789 3.83594ZM30.6465 5.85742L30.0016 6.62171L30.0027 6.62265L30.6465 5.85742ZM31.3428 8.01367L30.5405 7.41666L30.5401 7.41721L31.3428 8.01367ZM29.5234 10.4619L28.7208 9.86544L28.7166 9.87118L29.5234 10.4619ZM27.0527 10.6641L26.4894 11.4903L26.4898 11.4905L27.0527 10.6641ZM24.335 9.15918L23.8972 10.0583L23.9018 10.0605L24.335 9.15918ZM18.3154 8.55273L18.1193 7.57215L18.1155 7.57293L18.3154 8.55273ZM16.3613 9.63086L15.6542 8.92375L16.3613 9.63086ZM16.1367 13.7188L15.3648 14.3545L15.3695 14.3601L15.3742 14.3657L16.1367 13.7188ZM17.5293 14.8418L17.0821 15.7362L17.0927 15.7415L17.1035 15.7466L17.5293 14.8418ZM19.0791 15.4482L19.3874 14.4969L19.3789 14.4942L19.0791 15.4482ZM23.4141 16.8408L23.1113 17.7939L23.1216 17.7971L23.4141 16.8408ZM26.9404 18.1436L27.3508 17.2316L27.3466 17.2297L26.9404 18.1436ZM32.3311 22.9277L31.4143 23.3273L31.4187 23.3371L32.3311 22.9277ZM30.8262 33.0576L31.5401 33.7578L31.5435 33.7544L30.8262 33.0576ZM25.7275 36.0674L25.4942 35.095L25.485 35.0972L25.7275 36.0674ZM13.9355 36L14.2333 35.0453L14.2253 35.0429L13.9355 36ZM9.89024 32.7998C9.5049 32.5077 9.39879 32.3097 9.37497 32.2343C9.36607 32.2061 9.36667 32.1912 9.36941 32.1758C9.37296 32.1559 9.38674 32.104 9.44436 32.0176L7.78025 30.9082C7.40242 31.4749 7.2492 32.1443 7.4678 32.8365C7.66859 33.4724 8.13898 33.9819 8.68203 34.3936L9.89024 32.7998ZM9.44546 32.0159L11.175 29.4105L9.50864 28.3044L7.77915 30.9098L9.44546 32.0159ZM11.1738 29.4121C11.3288 29.1797 11.4187 29.1836 11.4458 29.1821C11.5393 29.1771 11.7962 29.2168 12.2623 29.5424L13.4077 27.9029C12.7806 27.4648 12.0754 27.1452 11.3379 27.1851C10.534 27.2285 9.9238 27.6816 9.50975 28.3027L11.1738 29.4121ZM12.2635 29.5433C13.1649 30.171 14.313 30.8049 15.6914 31.4482L16.5371 29.6358C15.2202 29.0213 14.1821 28.4422 13.4065 27.9021L12.2635 29.5433ZM15.7035 31.4537C17.1955 32.126 18.7655 32.4629 20.4043 32.4629V30.4629C19.0483 30.4629 17.7583 30.1859 16.525 29.6303L15.7035 31.4537ZM20.4043 32.4629C21.5293 32.4629 22.6205 32.3342 23.6755 32.0745L23.1975 30.1325C22.3059 30.352 21.3756 30.4629 20.4043 30.4629V32.4629ZM23.6755 32.0745C24.8349 31.7891 25.7936 31.2128 26.4643 30.3053L24.856 29.1165C24.5085 29.5867 23.9848 29.9387 23.1975 30.1325L23.6755 32.0745ZM26.4643 30.3053C27.1136 29.4269 27.4238 28.3972 27.4238 27.2627H25.4238C25.4238 28.0149 25.225 28.6173 24.856 29.1165L26.4643 30.3053ZM27.4238 27.2627C27.4238 26.4786 27.2931 25.7448 27.0018 25.0846L25.172 25.8919C25.33 26.25 25.4238 26.6992 25.4238 27.2627H27.4238ZM27.0018 25.0846C26.6914 24.3811 26.1871 23.8164 25.5296 23.3909L24.4431 25.07C24.8038 25.3034 25.0332 25.5772 25.172 25.8919L27.0018 25.0846ZM25.5296 23.3909C24.9721 23.0302 24.3951 22.7248 23.7987 22.4763L23.0294 24.3225C23.5112 24.5232 23.9823 24.7719 24.4431 25.07L25.5296 23.3909ZM23.7955 22.475C22.7958 22.0625 21.5584 21.6673 20.0948 21.2862L19.5908 23.2216C21.0021 23.5892 22.1456 23.9577 23.0326 24.3238L23.7955 22.475ZM20.1067 21.2894C18.7175 20.9092 17.3423 20.4557 15.9811 19.9288L15.2591 21.7939C16.6831 22.3451 18.123 22.82 19.5788 23.2184L20.1067 21.2894ZM15.9798 19.9283C14.8347 19.4868 13.788 18.8807 12.8362 18.1083L11.5759 19.6612C12.6906 20.5659 13.9199 21.2776 15.2604 21.7944L15.9798 19.9283ZM12.8362 18.1083C11.893 17.3428 11.1813 16.4981 10.6816 15.5776L8.92388 16.5318C9.56222 17.7077 10.4527 18.7497 11.5759 19.6612L12.8362 18.1083ZM10.6816 15.5776C10.2207 14.7286 9.94922 13.5124 9.94922 11.8545H7.94922C7.94922 13.7005 8.24675 15.2844 8.92388 16.5318L10.6816 15.5776ZM9.94922 11.8545C9.94922 10.0112 10.5374 8.47208 11.7106 7.18146L10.2308 5.83612C8.70874 7.51034 7.94922 9.53499 7.94922 11.8545H9.94922ZM11.7106 7.18146C12.939 5.83032 14.3179 4.99614 15.8529 4.62879L15.3874 2.68371C13.4185 3.15491 11.6978 4.22241 10.2308 5.83612L11.7106 7.18146ZM15.8529 4.62879C17.5294 4.22756 19.2182 4.02734 20.9209 4.02734V2.02734C19.0597 2.02734 17.2147 2.2464 15.3874 2.68371L15.8529 4.62879ZM20.9209 4.02734C22.5852 4.02734 24.3113 4.2811 26.1022 4.79688L26.6557 2.875C24.7031 2.31265 22.7905 2.02734 20.9209 2.02734V4.02734ZM26.1042 4.79746C27.9236 5.31731 29.1951 5.94122 30.0016 6.62171L31.2914 5.09313C30.1812 4.15644 28.6076 3.43269 26.6536 2.87441L26.1042 4.79746ZM30.0027 6.62265C30.4126 6.96749 30.5439 7.19801 30.5765 7.29899C30.5832 7.31982 30.5845 7.33136 30.5848 7.33503C30.5849 7.33705 30.5849 7.33796 30.5849 7.33803C30.5849 7.33809 30.5849 7.33809 30.5848 7.33831C30.5848 7.33855 30.5846 7.33976 30.5838 7.34214C30.583 7.34456 30.5816 7.34871 30.5788 7.35471C30.5734 7.36665 30.5623 7.38742 30.5405 7.41666L32.145 8.61068C32.5635 8.04835 32.7023 7.37365 32.4797 6.68441C32.2802 6.06664 31.8237 5.54097 31.2902 5.0922L30.0027 6.62265ZM30.5401 7.41721L28.7208 9.86545L30.3261 11.0584L32.1454 8.61013L30.5401 7.41721ZM28.7166 9.87118C28.5334 10.1214 28.4146 10.1405 28.3638 10.1447C28.2711 10.1523 28.0359 10.1238 27.6157 9.83758L26.4898 11.4905C27.1027 11.9081 27.796 12.1978 28.5269 12.138C29.2996 12.0748 29.8996 11.6409 30.3303 11.0527L28.7166 9.87118ZM27.6161 9.83784C26.8987 9.3487 25.9428 8.82231 24.7681 8.25784L23.9018 10.0605C25.0331 10.6041 25.8891 11.081 26.4894 11.4903L27.6161 9.83784ZM24.7727 8.26007C23.5009 7.64091 22.161 7.32812 20.7637 7.32812V9.32812C21.852 9.32812 22.893 9.56938 23.8972 10.0583L24.7727 8.26007ZM20.7637 7.32812C19.8244 7.32812 18.9417 7.40767 18.1193 7.57215L18.5115 9.53332C19.1865 9.39832 19.936 9.32812 20.7637 9.32812V7.32812ZM18.1155 7.57293C17.1751 7.76483 16.3511 8.22692 15.6542 8.92375L17.0684 10.338C17.5096 9.89678 17.9883 9.64011 18.5154 9.53254L18.1155 7.57293ZM15.6542 8.92375C14.8891 9.68891 14.5078 10.6509 14.5078 11.7422H16.5078C16.5078 11.1564 16.6956 10.7108 17.0684 10.338L15.6542 8.92375ZM14.5078 11.7422C14.5078 12.7285 14.767 13.6285 15.3648 14.3545L16.9086 13.083C16.6679 12.7908 16.5078 12.373 16.5078 11.7422H14.5078ZM15.3742 14.3657C15.8688 14.9486 16.4366 15.4135 17.0821 15.7362L17.9765 13.9474C17.6037 13.761 17.2432 13.4772 16.8992 13.0718L15.3742 14.3657ZM17.1035 15.7466C17.6525 16.0049 18.2111 16.2237 18.7793 16.4022L19.3789 14.4942C18.8989 14.3434 18.4244 14.1578 17.9551 13.937L17.1035 15.7466ZM18.7708 16.3995C20.3894 16.9241 21.8363 17.3889 23.1113 17.7939L23.7168 15.8877C22.4463 15.4842 21.0032 15.0206 19.3874 14.4969L18.7708 16.3995ZM23.1216 17.7971C24.3605 18.176 25.4975 18.5966 26.5343 19.0574L27.3466 17.2297C26.2271 16.7322 25.0132 16.2842 23.7066 15.8846L23.1216 17.7971ZM26.5301 19.0555C27.9851 19.7103 29.0365 20.3388 29.7297 20.9273L31.0242 19.4027C30.1301 18.6437 28.8905 17.9245 27.3508 17.2316L26.5301 19.0555ZM29.7297 20.9273C30.3839 21.4828 30.9528 22.2685 31.4144 23.3273L33.2478 22.5281C32.6911 21.2511 31.9572 20.195 31.0242 19.4027L29.7297 20.9273ZM31.4187 23.3371C31.8719 24.3472 32.1172 25.5935 32.1172 27.1055H34.1172C34.1172 25.3831 33.8384 23.8442 33.2434 22.5183L31.4187 23.3371ZM32.1172 27.1055C32.1172 29.2676 31.4373 30.9934 30.1089 32.3608L31.5435 33.7544C33.2698 31.9773 34.1172 29.735 34.1172 27.1055H32.1172ZM30.1122 32.3574C28.6984 33.799 27.1599 34.6952 25.4942 35.095L25.9609 37.0398C28.0387 36.5411 29.8993 35.4308 31.5401 33.7578L30.1122 32.3574ZM25.485 35.0972C23.701 35.5432 21.9707 35.7637 20.292 35.7637V37.7637C22.1472 37.7637 24.0405 37.5199 25.9701 37.0375L25.485 35.0972ZM20.292 35.7637C17.7404 35.7637 15.7326 35.513 14.2333 35.0454L13.6378 36.9546C15.4028 37.5052 17.6326 37.7637 20.292 37.7637V35.7637ZM14.2253 35.0429C12.7145 34.5855 11.2695 33.8412 9.88874 32.7986L8.68353 34.3947C10.2377 35.5683 11.8922 36.4262 13.6458 36.9571L14.2253 35.0429Z" fill="#1E1E1E" mask="url(#path-1-outside-1_152_203)"/>
</g>
<defs>
<clipPath id="clip0_152_203">
<rect width="40" height="40" fill="white"/>
</clipPath>
</defs>
</svg>
